<?xml version="1.0" standalone="no"?>
<!DOCTYPE svg PUBLIC "-//W3C//DTD SVG 20010904//EN"
 "http://www.w3.org/TR/2001/REC-SVG-20010904/DTD/svg10.dtd">
<svg version="1.0" xmlns="http://www.w3.org/2000/svg"
 width="992.000000pt" height="992.000000pt" viewBox="0 0 992.000000 992.000000"
 preserveAspectRatio="xMidYMid meet">
<metadata>
Created by potrace 1.14, written by Peter Selinger 2001-2017
</metadata>
<g transform="translate(0.000000,992.000000) scale(0.100000,-0.100000)"
fill="#000000" stroke="none">
<path d="M8217 8844 c-1 -1 -60 -5 -132 -8 -71 -4 -150 -9 -175 -12 -81 -9
-294 -10 -335 -1 -51 11 -158 8 -200 -5 -11 -4 -37 -9 -59 -13 -21 -3 -42 -8
-46 -10 -5 -3 -11 -2 -14 3 -8 13 -131 1 -180 -18 -15 -5 -26 -7 -26 -5 0 2
-12 0 -27 -6 -27 -10 -35 -13 -85 -24 -34 -8 -154 -26 -186 -29 -15 -1 -33 -5
-39 -9 -7 -4 -34 -10 -60 -13 -26 -2 -55 -7 -63 -9 -8 -3 -35 -7 -60 -10 -49
-6 -85 -13 -85 -15 0 -1 -37 -3 -83 -5 -103 -4 -129 -10 -211 -47 -79 -36 -88
-38 -166 -42 -42 -3 -126 -26 -285 -81 -124 -42 -236 -78 -250 -81 -40 -7
-184 -47 -192 -54 -5 -3 21 -4 57 -2 44 3 65 1 65 -7 0 -6 -6 -11 -12 -12 -65
-5 -114 -17 -188 -44 -36 -13 -87 -26 -115 -28 -53 -6 -93 -14 -135 -29 -8 -3
-64 -23 -125 -43 -60 -20 -119 -43 -130 -49 -11 -7 -44 -21 -72 -31 -29 -11
-53 -23 -53 -27 0 -4 -3 -7 -7 -6 -9 3 -113 -40 -113 -47 0 -5 81 5 92 11 4 3
8 0 8 -5 0 -6 -5 -11 -11 -11 -9 0 -9 -4 0 -13 9 -11 3 -17 -27 -30 -58 -24
-76 -30 -92 -31 -8 -1 -21 -5 -28 -10 -7 -4 -16 -5 -19 -2 -3 3 -13 2 -22 -3
-9 -5 -34 -11 -56 -14 l-40 -6 30 14 30 14 -45 -3 c-38 -3 -71 -20 -215 -114
-94 -61 -175 -116 -182 -121 -7 -6 -19 -8 -27 -5 -18 7 -61 -15 -103 -53 -74
-66 -90 -78 -126 -90 -21 -7 -42 -11 -47 -8 -5 3 -8 -3 -8 -12 3 -45 -48 -149
-94 -193 -29 -27 -136 -97 -208 -136 -30 -16 -56 -32 -58 -36 -2 -5 -9 -8 -14
-8 -18 0 -119 -79 -169 -132 -25 -26 -51 -48 -57 -48 -10 0 -94 -128 -108
-165 -6 -14 -4 -16 6 -10 14 9 -16 -46 -40 -73 -20 -21 -15 -42 21 -103 16
-27 32 -61 35 -74 6 -24 4 -25 -42 -26 -27 -1 -57 0 -68 1 -15 1 -17 -4 -13
-37 9 -65 19 -103 28 -103 5 0 9 -5 9 -11 0 -34 200 -269 229 -269 5 0 11 -3
13 -8 13 -30 166 -104 238 -116 54 -8 66 10 33 53 -14 20 -34 43 -42 52 -9 9
-27 31 -41 49 -14 19 -34 45 -46 59 -40 49 -56 92 -55 150 1 85 21 137 103
262 41 63 79 126 86 141 6 15 27 35 46 45 44 23 128 101 121 113 -3 4 21 28
53 53 51 38 353 242 404 272 9 6 76 46 148 90 183 112 395 235 405 235 3 0 26
13 53 30 33 21 41 30 27 30 l-20 1 20 11 c11 6 22 14 25 18 3 3 21 16 40 28
l35 23 -34 -7 c-19 -3 -63 -19 -99 -35 -35 -16 -67 -29 -70 -29 -20 0 144 79
178 86 5 1 50 18 80 31 8 3 17 7 20 8 3 0 32 11 65 24 33 13 157 56 275 97
118 41 224 78 235 83 106 47 132 63 147 91 14 24 21 29 34 22 10 -6 31 -6 53
0 20 5 48 10 63 11 15 2 35 13 45 26 17 21 27 23 126 25 58 1 109 5 112 8 4 3
1 15 -6 26 -10 16 -18 18 -41 12 -34 -10 -39 7 -5 19 12 5 21 12 20 17 -2 5 3
9 10 9 6 0 18 5 26 9 11 7 13 5 8 -8 -8 -19 -12 -19 158 1 28 3 59 6 70 7 11
1 26 6 32 13 7 6 39 15 70 18 32 4 72 9 88 12 27 5 45 7 98 11 9 1 17 8 17 16
0 8 10 18 23 22 30 9 106 42 138 59 15 8 44 16 65 16 63 3 74 0 68 -16 -4 -11
-2 -13 9 -9 25 9 30 35 7 41 -34 9 -22 21 13 14 41 -10 247 -6 307 4 25 5 50
9 55 10 26 3 108 30 198 67 54 22 106 41 115 43 9 2 44 12 77 21 39 11 102 17
177 18 65 0 118 3 118 6 0 3 30 5 68 6 37 0 103 4 147 8 44 4 129 9 190 12
l110 4 -45 -38 c-71 -60 -101 -91 -105 -110 -1 -10 -24 -40 -50 -67 -43 -47
-167 -226 -211 -305 -10 -19 -21 -37 -24 -40 -3 -3 -31 -45 -62 -95 -31 -49
-146 -217 -255 -372 -109 -155 -205 -292 -213 -304 -8 -12 -19 -27 -25 -33 -5
-6 -28 -38 -50 -70 -22 -33 -44 -64 -50 -70 -5 -6 -23 -29 -40 -51 -16 -22
-34 -45 -40 -52 -5 -7 -25 -31 -42 -55 -50 -67 -205 -259 -238 -297 -52 -59
-119 -134 -143 -160 -13 -14 -56 -62 -95 -106 -40 -44 -181 -190 -313 -325
-367 -372 -395 -403 -598 -640 -167 -195 -208 -241 -214 -236 -3 3 -11 1 -19
-5 -7 -6 -13 -9 -13 -5 0 3 -11 1 -25 -4 -14 -5 -36 -12 -48 -14 -12 -2 -41
-9 -65 -15 -23 -7 -109 -14 -190 -16 -81 -2 -167 -6 -192 -9 -25 -3 -63 -8
-85 -11 -74 -9 -190 -19 -222 -20 -18 0 -33 -2 -33 -5 0 -3 -82 -5 -183 -6
-256 -1 -445 -13 -630 -39 -68 -9 -189 -27 -210 -30 -12 -2 -38 -6 -57 -9 -19
-3 -44 -7 -55 -9 -11 -3 -38 -8 -60 -12 -22 -4 -51 -9 -65 -12 -91 -16 -161
-34 -195 -49 -22 -10 -44 -19 -50 -20 -5 -1 -37 -7 -70 -13 -33 -6 -71 -13
-85 -16 -23 -5 -76 -14 -108 -19 -32 -5 -167 -125 -234 -208 -18 -22 -38 -45
-43 -52 -16 -18 -65 -112 -78 -151 -11 -31 -22 -40 -82 -68 -39 -17 -72 -34
-75 -37 -3 -3 -23 -14 -45 -25 -65 -32 -158 -96 -190 -130 -26 -27 -178 -135
-190 -135 -2 0 -24 -13 -48 -30 -25 -16 -50 -30 -56 -30 -6 0 -11 -4 -11 -10
0 -5 -7 -10 -15 -10 -8 0 -15 -4 -15 -10 0 -5 -4 -10 -10 -10 -5 0 -49 -25
-97 -57 -48 -31 -119 -76 -158 -101 -38 -25 -88 -56 -110 -71 -43 -27 -115
-98 -235 -231 -41 -45 -95 -103 -119 -129 -23 -25 -64 -70 -90 -100 -25 -30
-51 -59 -56 -65 -11 -12 -125 -145 -163 -190 -13 -15 -56 -71 -98 -124 -41
-53 -78 -101 -82 -107 -15 -19 -97 -138 -120 -174 -42 -67 -73 -151 -56 -151
5 0 60 79 123 175 62 96 118 175 123 175 6 0 3 -10 -6 -23 -66 -93 -141 -212
-168 -267 -18 -36 -35 -67 -38 -70 -19 -17 -185 -402 -195 -450 -1 -3 -7 -25
-14 -50 -7 -25 -15 -53 -17 -63 -2 -10 -5 -26 -8 -35 -3 -9 -8 -39 -12 -67 -3
-27 -8 -59 -10 -70 -6 -30 -5 -187 1 -215 3 -14 8 -35 11 -47 17 -81 88 -179
158 -216 80 -42 138 -55 283 -62 87 -4 149 -17 243 -48 148 -50 250 -50 432
-2 73 19 140 37 148 39 8 2 29 7 45 11 17 4 35 10 40 14 6 3 15 6 22 7 20 3
197 72 258 100 33 15 81 45 106 66 26 21 51 38 55 38 33 1 274 146 332 200 11
11 24 20 27 20 2 0 15 9 27 19 13 10 55 45 94 77 133 110 168 139 248 208 115
98 197 172 311 281 55 53 119 113 143 133 56 48 383 366 534 519 385 390 600
613 690 715 13 14 48 54 78 88 30 35 62 70 71 79 8 9 40 45 69 81 30 36 98
107 150 158 52 52 187 185 300 296 113 111 226 218 251 239 l47 38 38 -23 c22
-12 41 -25 44 -28 3 -3 25 -15 50 -27 57 -29 147 -85 235 -148 63 -44 279
-251 330 -315 11 -14 40 -50 65 -80 25 -30 52 -63 60 -73 8 -11 20 -24 25 -31
6 -6 32 -40 58 -76 26 -36 54 -72 62 -81 8 -9 15 -19 15 -23 0 -4 5 -12 10
-19 83 -95 353 -512 426 -657 36 -71 65 -132 64 -136 -1 -4 2 -10 7 -13 4 -3
30 -50 58 -104 44 -88 48 -101 38 -127 -26 -68 95 -218 227 -282 121 -59 241
-71 373 -37 134 34 418 134 485 171 18 10 39 18 47 18 8 0 15 5 15 10 0 6 6
10 13 10 7 0 32 16 55 36 48 41 53 66 19 107 l-22 27 -25 -20 c-42 -34 -172
-115 -222 -138 -158 -73 -333 -27 -427 114 -45 69 -61 129 -65 245 -3 81 -9
118 -29 169 -26 68 -29 144 -12 265 4 28 8 61 10 75 6 48 16 105 20 118 3 7 7
34 11 60 3 26 10 55 15 65 6 9 8 17 5 17 -2 0 4 27 14 60 10 33 16 60 14 60
-2 0 1 12 7 28 6 15 12 34 14 42 8 34 48 186 53 200 3 8 6 20 7 25 2 6 8 30
15 55 7 25 13 52 15 61 2 9 13 49 25 89 12 40 23 80 25 89 10 49 39 155 60
214 14 37 22 67 20 67 -8 0 37 112 91 229 30 62 54 117 54 121 0 4 6 13 14 19
8 7 18 26 21 42 4 16 10 29 14 29 4 0 15 17 25 38 10 20 39 72 64 115 36 61
51 77 69 77 13 0 23 -4 23 -10 0 -10 -3 -11 -32 -14 -7 0 -14 -11 -16 -23 -3
-21 0 -23 45 -23 26 0 66 5 88 10 79 18 173 24 360 23 105 0 199 -1 210 -2 40
-2 61 1 94 16 22 10 51 14 83 11 27 -3 51 -2 53 3 3 4 24 5 48 2 23 -3 70 -5
105 -5 55 2 62 -1 62 -17 0 -16 6 -19 38 -15 107 11 146 40 100 76 -26 20
-125 54 -181 63 -170 24 -329 32 -787 39 -129 2 -237 5 -238 5 -2 1 5 16 15
34 10 17 19 46 18 64 -1 29 2 32 22 27 19 -5 23 -2 23 15 0 26 39 141 53 160
6 7 11 42 11 76 0 55 3 65 22 75 35 19 45 46 60 160 3 25 7 52 9 60 2 8 7 31
10 50 3 19 8 43 11 53 3 10 2 16 -3 15 -4 -2 -10 2 -12 7 -2 6 12 18 32 28 40
20 46 37 22 57 -20 17 -8 32 16 20 14 -8 19 -7 20 2 1 7 2 24 4 38 2 14 6 68
10 120 3 52 8 106 11 120 2 14 7 41 10 60 12 79 70 220 90 220 21 0 17 -12
-15 -55 l-29 -39 18 -37 c11 -20 17 -39 14 -42 -8 -8 -12 -45 -18 -168 -5 -91
-3 -119 8 -135 14 -18 15 -18 27 11 19 47 18 68 -3 92 l-20 22 31 46 c17 25
31 50 31 56 0 5 5 9 11 9 5 0 8 4 4 9 -3 5 -1 12 5 16 18 11 71 149 84 218 7
36 6 38 -13 28 -30 -17 -33 -14 -16 19 25 48 78 107 143 160 33 27 42 46 17
36 -21 -8 -19 7 8 47 28 44 62 58 53 21 -13 -50 13 -21 80 91 38 63 72 115 76
115 5 0 8 5 8 11 0 10 118 158 159 200 9 9 75 78 146 153 72 76 163 172 203
214 87 89 196 218 240 283 76 113 91 225 37 294 -53 70 -201 150 -317 170 -17
3 -35 8 -40 11 -5 3 -21 8 -36 10 -15 3 -38 7 -52 10 -60 13 -110 15 -110 6 0
-6 -28 -24 -62 -40 -73 -35 -110 -65 -131 -107 -14 -29 -51 -135 -50 -145 0
-11 -36 -109 -52 -140 -20 -39 -116 -174 -127 -178 -5 -2 -8 -8 -8 -13 0 -10
-84 -125 -126 -173 l-26 -29 56 7 c31 3 56 4 56 1 0 -2 -25 -27 -55 -56 -50
-47 -54 -54 -49 -85 3 -19 1 -34 -4 -34 -9 0 -140 -195 -230 -342 -55 -88
-100 -182 -106 -220 -4 -27 -15 -44 -53 -86 -7 -7 -13 -17 -13 -22 0 -5 -6
-15 -12 -22 -7 -8 -20 -25 -28 -38 -8 -14 -48 -81 -90 -150 -41 -69 -91 -154
-110 -188 -19 -34 -50 -85 -67 -113 -41 -63 -41 -72 -3 -64 21 5 32 2 35 -7 7
-17 -440 -910 -450 -900 -4 4 -5 -4 -1 -18 13 -44 11 -53 -10 -56 -36 -6 -75
-24 -71 -31 3 -5 8 -33 11 -63 3 -32 2 -49 -3 -41 -7 11 -10 11 -17 -2 -7 -11
-37 -17 -124 -21 -63 -4 -142 -9 -175 -12 -33 -3 -91 -7 -130 -9 -38 -3 -99
-7 -135 -10 -36 -3 -101 -7 -145 -10 -83 -5 -191 -13 -260 -20 -105 -10 -183
-18 -210 -21 -16 -2 -56 -6 -88 -9 -31 -2 -62 -7 -67 -10 -14 -9 -150 -17
-150 -10 0 4 36 43 80 87 44 45 140 144 212 220 184 194 214 226 288 308 36
40 76 84 90 99 14 15 59 65 100 111 41 47 89 99 105 116 17 18 55 61 85 95 30
35 68 77 84 94 15 16 44 50 65 74 20 24 54 63 76 86 22 24 65 71 95 106 30 34
69 77 85 95 17 17 41 45 55 62 14 16 63 71 110 122 47 51 92 101 100 110 8 9
50 55 92 101 42 46 86 95 98 109 12 14 49 56 83 93 81 90 91 101 162 182 33
37 69 78 80 89 11 12 52 57 90 101 67 77 114 129 163 183 12 14 44 50 70 80
26 30 58 66 72 81 48 51 150 169 172 197 12 16 25 31 28 34 3 3 16 22 29 43
13 21 29 44 37 52 8 7 32 51 54 96 30 63 40 95 40 133 0 134 -63 173 -315 198
-103 10 -331 18 -338 12z m-1342 -3695 c0 -10 11 -13 35 -12 127 9 440 22 440
18 0 -2 -7 -19 -43 -105 -13 -30 -12 -28 -22 -65 -4 -16 -14 -37 -21 -45 -7
-8 -13 -19 -14 -25 0 -5 -10 -41 -22 -78 -11 -37 -18 -79 -15 -93 3 -17 -1
-28 -13 -34 -28 -15 -55 -86 -43 -113 9 -19 8 -26 -7 -35 -16 -10 -61 -90 -62
-109 0 -4 -4 -15 -9 -24 -4 -9 -11 -44 -14 -77 -7 -74 -46 -272 -80 -402 -14
-52 -27 -104 -30 -115 -2 -11 -9 -40 -16 -65 -16 -66 -23 -95 -34 -145 -2 -11
-8 -35 -14 -52 -5 -18 -7 -33 -4 -33 3 0 -1 -7 -8 -17 -8 -9 -15 -26 -15 -37
-10 -173 -14 -240 -17 -242 -5 -5 -107 146 -107 157 0 5 -4 9 -8 9 -4 0 -16
15 -27 33 -10 17 -21 34 -24 37 -3 3 -22 28 -40 55 -48 68 -255 348 -272 366
-8 8 -27 30 -42 49 -40 49 -202 214 -262 265 -27 24 -63 55 -80 70 -53 46
-267 206 -292 218 -12 5 -23 14 -23 19 0 4 -4 8 -9 8 -5 0 -46 23 -90 50 -44
28 -84 50 -88 50 -5 0 -19 9 -33 19 l-24 19 61 59 c240 229 313 291 313 267 0
-4 7 -1 15 6 8 7 15 10 15 7 0 -3 17 -1 38 4 49 11 120 22 155 23 15 1 27 4
27 7 0 3 9 5 21 4 11 -1 46 2 77 6 32 5 91 11 132 14 41 4 86 8 100 11 14 2
54 6 90 10 121 11 279 42 345 67 46 17 60 16 60 -4z m-2025 -199 l145 -1 -58
-19 c-32 -10 -86 -21 -120 -24 -34 -3 -80 -7 -102 -10 -67 -8 -148 -16 -320
-31 -44 -4 -87 -9 -95 -11 -8 -2 -58 -14 -110 -28 -123 -32 -172 -40 -290 -50
-36 -3 -90 -8 -120 -11 -117 -10 -236 -39 -310 -75 -38 -19 -132 -31 -150 -20
-15 9 17 75 52 107 44 42 165 83 283 97 28 4 66 9 85 12 19 3 49 7 65 9 17 2
55 11 85 19 99 27 112 28 390 33 151 2 278 5 282 6 5 1 38 1 75 0 38 -1 133
-2 213 -3z m-135 -285 c55 -3 116 -8 135 -11 19 -2 55 -6 80 -9 103 -10 121
-12 126 -17 3 -3 -14 -26 -38 -51 -63 -65 -187 -196 -318 -336 -63 -68 -139
-149 -169 -180 -29 -31 -105 -112 -170 -180 -147 -158 -683 -694 -827 -828
-60 -55 -146 -136 -190 -180 -158 -152 -269 -254 -379 -348 -32 -27 -66 -58
-74 -67 -9 -10 -21 -18 -28 -18 -7 0 -13 -4 -13 -8 0 -5 -41 -42 -92 -83 -51
-41 -99 -81 -108 -89 -8 -8 -49 -41 -90 -72 -41 -31 -119 -90 -173 -131 -54
-42 -124 -92 -155 -114 -31 -21 -59 -41 -62 -44 -3 -3 -41 -29 -85 -57 -44
-28 -84 -55 -90 -59 -5 -5 -32 -21 -60 -37 -27 -16 -58 -36 -67 -44 -10 -8
-18 -11 -18 -6 0 5 -4 4 -8 -2 -9 -13 -23 -21 -193 -106 -74 -36 -147 -70
-164 -74 -16 -4 -42 -13 -57 -20 -15 -8 -35 -15 -45 -17 -10 -2 -36 -9 -58
-15 -220 -62 -433 -48 -610 41 -72 35 -119 83 -154 157 -23 50 -26 66 -26 175
0 128 4 154 36 254 19 60 32 93 82 201 11 25 22 51 23 58 1 8 9 21 17 30 8 10
17 26 21 36 14 41 187 312 231 363 11 14 15 18 65 83 19 24 42 52 50 60 8 9
26 30 40 47 129 159 432 461 650 648 30 26 66 57 80 69 14 12 43 35 65 51 22
17 45 35 50 41 24 25 279 213 370 272 11 7 34 21 50 32 17 10 35 24 42 29 7 6
16 11 21 11 5 0 30 16 55 35 25 19 49 35 53 35 4 0 21 11 38 24 31 23 252 135
278 140 7 2 26 8 41 15 29 11 237 65 292 75 31 6 40 8 115 27 25 6 52 12 60
14 68 14 329 67 345 70 11 2 47 9 80 15 33 5 74 12 90 15 17 3 39 7 50 10 11
2 43 7 70 10 28 4 57 8 65 10 8 2 38 7 65 10 28 4 61 8 75 11 14 2 48 7 75 10
28 3 64 7 80 10 17 2 75 7 130 10 55 3 102 8 103 9 2 2 9 2 15 0 7 -2 57 -6
112 -10z"/>
</g>
</svg>
