<svg width="136" height="36" viewBox="0 0 136 36" fill="none" xmlns="http://www.w3.org/2000/svg">
<path d="M13.6 35.36C13.04 35.36 12.48 35.28 11.92 35.12C11.36 35.04 10.8 34.96 10.24 34.88C8.8 34.48 7.8 33.64 7.24 32.36C6.52 30.76 6.52 28.84 7.24 26.6C8.04 24.28 9.32 21.32 11.08 17.72C11.4 17.08 11.72 16.36 12.04 15.56C12.44 14.76 12.8 14 13.12 13.28C12.08 13.68 10.96 14.36 9.76 15.32C8.64 16.2 7.48 17.12 6.28 18.08C5.48 18.64 4.6 18.88 3.64 18.8C2.6 18.64 1.76 18.2 1.12 17.48C0.56 16.68 0.36 15.8 0.52 14.84C0.6 13.88 1 13.04 1.72 12.32C2.84 11.52 4 10.64 5.2 9.68C6.48 8.72 7.76 7.92 9.04 7.28C12.32 5.6 15.32 5.16 18.04 5.96C19.32 6.2 20.28 7 20.92 8.36C21.56 9.64 21.52 11.24 20.8 13.16C20.16 15.08 19.04 17.68 17.44 20.96C17.04 21.92 16.6 22.88 16.12 23.84C15.72 24.8 15.32 25.72 14.92 26.6C14.84 26.92 14.72 27.2 14.56 27.44C14.48 27.68 14.4 27.92 14.32 28.16C16 27.92 18.44 27.08 21.64 25.64C24.92 24.12 29.32 21.16 34.84 16.76C37.8 14.44 40.48 12.2 42.88 10.04C45.28 7.8 47.2 5.96 48.64 4.52C50.08 3.08 50.8 2.36 50.8 2.36C51.76 1.24 52.92 0.879999 54.28 1.28C54.92 1.36 55.44 1.64 55.84 2.12C56.24 2.52 56.56 2.92 56.8 3.32C57.36 4.44 57.4 5.76 56.92 7.28C56.52 8.72 55.64 11.08 54.28 14.36C53.8 15.4 53.32 16.44 52.84 17.48C52.44 18.52 52.04 19.48 51.64 20.36C51.56 20.68 51.48 20.96 51.4 21.2C51.4 21.36 51.36 21.52 51.28 21.68C52.8 21.44 54.4 20.8 56.08 19.76C57.84 18.64 59.52 17.4 61.12 16.04C62.8 14.68 64.2 13.52 65.32 12.56C66.12 11.84 67 11.52 67.96 11.6C68.92 11.68 69.76 12.08 70.48 12.8C71.12 13.6 71.4 14.48 71.32 15.44C71.32 16.4 70.92 17.24 70.12 17.96C67.64 20.12 65.08 22.16 62.44 24.08C59.88 26 57.28 27.44 54.64 28.4C52.08 29.28 49.48 29.4 46.84 28.76C45.56 28.2 44.64 27.4 44.08 26.36C43.6 25.24 43.44 24 43.6 22.64C43.84 21.28 44.32 19.6 45.04 17.6C44.16 18.4 43.24 19.16 42.28 19.88C41.4 20.6 40.44 21.4 39.4 22.28C28.36 31 19.76 35.36 13.6 35.36ZM77.4672 35.36C76.9072 35.36 76.3472 35.28 75.7872 35.12C75.2272 35.04 74.6672 34.96 74.1072 34.88C72.6672 34.48 71.6672 33.64 71.1072 32.36C70.3872 30.76 70.3872 28.84 71.1072 26.6C71.9072 24.28 73.1872 21.32 74.9472 17.72C75.2672 17.08 75.5872 16.36 75.9072 15.56C76.3072 14.76 76.6672 14 76.9872 13.28C75.9472 13.68 74.8272 14.36 73.6272 15.32C72.5072 16.2 71.3472 17.12 70.1472 18.08C69.3472 18.64 68.4672 18.88 67.5072 18.8C66.4672 18.64 65.6272 18.2 64.9872 17.48C64.4272 16.68 64.2272 15.8 64.3872 14.84C64.4672 13.88 64.8672 13.04 65.5872 12.32C66.7072 11.52 67.8672 10.64 69.0672 9.68C70.3472 8.72 71.6272 7.92 72.9072 7.28C76.1872 5.6 79.1872 5.16 81.9072 5.96C83.1872 6.2 84.1472 7 84.7872 8.36C85.4272 9.64 85.3872 11.24 84.6672 13.16C84.0272 15.08 82.9072 17.68 81.3072 20.96C80.9072 21.92 80.4672 22.88 79.9872 23.84C79.5872 24.8 79.1872 25.72 78.7872 26.6C78.7072 26.92 78.5872 27.2 78.4272 27.44C78.3472 27.68 78.2672 27.92 78.1872 28.16C79.8672 27.92 82.3072 27.08 85.5072 25.64C88.7872 24.12 93.1872 21.16 98.7072 16.76C101.667 14.44 104.347 12.2 106.747 10.04C109.147 7.8 111.067 5.96 112.507 4.52C113.947 3.08 114.667 2.36 114.667 2.36C115.627 1.24 116.787 0.879999 118.147 1.28C118.787 1.36 119.307 1.64 119.707 2.12C120.107 2.52 120.427 2.92 120.667 3.32C121.227 4.44 121.267 5.76 120.787 7.28C120.387 8.72 119.507 11.08 118.147 14.36C117.667 15.4 117.187 16.44 116.707 17.48C116.307 18.52 115.907 19.48 115.507 20.36C115.427 20.68 115.347 20.96 115.267 21.2C115.267 21.36 115.227 21.52 115.147 21.68C116.667 21.44 118.267 20.8 119.947 19.76C121.707 18.64 123.387 17.4 124.987 16.04C126.667 14.68 128.067 13.52 129.187 12.56C129.987 11.84 130.867 11.52 131.827 11.6C132.787 11.68 133.627 12.08 134.347 12.8C134.987 13.6 135.267 14.48 135.187 15.44C135.187 16.4 134.787 17.24 133.987 17.96C131.507 20.12 128.947 22.16 126.307 24.08C123.747 26 121.147 27.44 118.507 28.4C115.947 29.28 113.347 29.4 110.707 28.76C109.427 28.2 108.507 27.4 107.947 26.36C107.467 25.24 107.307 24 107.467 22.64C107.707 21.28 108.187 19.6 108.907 17.6C108.027 18.4 107.107 19.16 106.147 19.88C105.267 20.6 104.307 21.4 103.267 22.28C92.2272 31 83.6272 35.36 77.4672 35.36Z" fill="#D11F1F" fill-opacity="0.2"/>
</svg>
