<svg width="1000" height="470" viewBox="0 0 1000 470" fill="none" xmlns="http://www.w3.org/2000/svg">
<path d="M653.392 109.728C653.605 112.853 654.6 115.622 656.375 118.037C658.151 120.452 660.601 122.369 663.726 123.79C666.922 125.139 670.686 125.814 675.018 125.814C679.138 125.814 682.831 125.388 686.098 124.536C689.436 123.683 692.312 122.618 694.727 121.34C697.212 120.061 699.13 118.747 700.479 117.398L713.05 137.426C711.275 139.344 708.753 141.226 705.486 143.072C702.29 144.848 698.065 146.304 692.809 147.44C687.554 148.576 680.913 149.144 672.888 149.144C663.229 149.144 654.635 147.333 647.107 143.711C639.579 140.089 633.648 134.763 629.316 127.732C624.984 120.7 622.818 112.107 622.818 101.951C622.818 93.4283 624.664 85.7581 628.357 78.94C632.122 72.051 637.555 66.6179 644.657 62.6407C651.759 58.5925 660.317 56.5684 670.331 56.5684C679.848 56.5684 688.086 58.3084 695.046 61.7884C702.077 65.2685 707.475 70.453 711.239 77.342C715.074 84.1601 716.992 92.6826 716.992 102.91C716.992 103.478 716.956 104.614 716.885 106.319C716.885 108.023 716.814 109.16 716.672 109.728H653.392ZM686.524 92.7892C686.453 90.5165 685.849 88.2793 684.713 86.0777C683.576 83.805 681.872 81.9584 679.599 80.538C677.326 79.0466 674.415 78.3008 670.864 78.3008C667.313 78.3008 664.294 79.011 661.808 80.4315C659.394 81.7809 657.547 83.5564 656.269 85.7581C654.99 87.9597 654.28 90.3034 654.138 92.7892H686.524Z" fill="#F20544" fill-opacity="0.2"/>
<path d="M575.04 146.588H542.654V59.1251H575.04V72.6547H574.507C575.075 71.0212 576.46 68.9616 578.662 66.4758C580.864 63.9191 583.953 61.6464 587.93 59.6578C591.908 57.5982 596.772 56.5684 602.525 56.5684C606.573 56.5684 610.302 57.2076 613.711 58.4859C617.12 59.6933 619.606 60.8651 621.168 62.0015L608.597 88.3148C607.603 87.1075 605.828 85.8646 603.271 84.5862C600.785 83.2368 597.66 82.5621 593.896 82.5621C589.564 82.5621 585.977 83.6629 583.136 85.8646C580.367 88.0662 578.307 90.7295 576.958 93.8545C575.679 96.9794 575.04 99.9268 575.04 102.697V146.588Z" fill="#F20544" fill-opacity="0.2"/>
<path d="M479.885 149.144C470.298 149.144 461.775 147.191 454.318 143.285C446.932 139.308 441.108 133.875 436.847 126.986C432.656 120.026 430.561 112.071 430.561 103.123C430.561 94.1741 432.656 86.2197 436.847 79.2596C441.108 72.2285 446.932 66.6889 454.318 62.6407C461.775 58.5925 470.298 56.5684 479.885 56.5684C489.473 56.5684 497.925 58.5925 505.24 62.6407C512.555 66.6889 518.272 72.2285 522.392 79.2596C526.511 86.2197 528.571 94.1741 528.571 103.123C528.571 112.071 526.511 120.026 522.392 126.986C518.272 133.875 512.555 139.308 505.24 143.285C497.925 147.191 489.473 149.144 479.885 149.144ZM479.885 122.512C483.579 122.512 486.775 121.695 489.473 120.061C492.172 118.428 494.267 116.12 495.759 113.137C497.25 110.154 497.996 106.78 497.996 103.016C497.996 99.1811 497.25 95.772 495.759 92.7892C494.267 89.8063 492.172 87.4626 489.473 85.7581C486.775 84.0535 483.579 83.2013 479.885 83.2013C476.192 83.2013 472.961 84.0535 470.191 85.7581C467.492 87.4626 465.362 89.8063 463.799 92.7892C462.308 95.772 461.562 99.1811 461.562 103.016C461.562 106.78 462.308 110.154 463.799 113.137C465.362 116.12 467.492 118.428 470.191 120.061C472.961 121.695 476.192 122.512 479.885 122.512Z" fill="#F20544" fill-opacity="0.2"/>
<path d="M414.475 146.588H381.983V0H414.475V146.588Z" fill="#F20544" fill-opacity="0.2"/>
<path d="M293.262 190.905H261.196V59.1251H293.581V71.9089C294.576 69.9203 296.458 67.7542 299.227 65.4105C302.068 62.9958 305.655 60.9362 309.987 59.2317C314.39 57.4561 319.362 56.5684 324.902 56.5684C333.424 56.5684 340.704 58.6635 346.741 62.8537C352.848 67.044 357.536 72.6547 360.803 79.6857C364.07 86.6458 365.703 94.3871 365.703 102.91C365.703 111.432 363.963 119.209 360.483 126.24C357.003 133.2 352.103 138.775 345.782 142.966C339.532 147.085 332.146 149.144 323.623 149.144C317.515 149.144 312.295 148.079 307.963 145.948C303.702 143.747 300.328 141.332 297.842 138.704C295.428 136.006 293.901 133.91 293.262 132.419V190.905ZM334.063 102.91C334.063 98.9325 333.175 95.3814 331.4 92.2565C329.624 89.0605 327.21 86.5748 324.156 84.7993C321.173 82.9527 317.799 82.0294 314.035 82.0294C310.129 82.0294 306.614 82.9527 303.489 84.7993C300.435 86.5748 298.02 89.0605 296.245 92.2565C294.469 95.3814 293.581 98.9325 293.581 102.91C293.581 106.887 294.469 110.473 296.245 113.669C298.02 116.794 300.435 119.245 303.489 121.02C306.614 122.796 310.129 123.683 314.035 123.683C317.799 123.683 321.173 122.796 324.156 121.02C327.21 119.245 329.624 116.794 331.4 113.669C333.175 110.473 334.063 106.887 334.063 102.91Z" fill="#F20544" fill-opacity="0.2"/>
<path d="M211.457 99.6073L248.637 146.588H212.736L192.068 119.635L171.401 146.588H137.95L175.023 102.164L141.679 59.1252H177.9L194.093 81.6034L211.031 59.1252H243.843L211.457 99.6073Z" fill="#F20544" fill-opacity="0.2"/>
<path d="M31.5933 5.96582H121.4V33.8771H63.3398V62.5342H120.867V89.5932H63.3398V118.676H121.4V146.588H31.5933V5.96582Z" fill="#F20544" fill-opacity="0.2"/>
<path d="M936.401 193.532C936.614 196.657 937.608 199.427 939.383 201.842C941.159 204.257 943.609 206.174 946.734 207.595C949.93 208.944 953.694 209.619 958.026 209.619C962.146 209.619 965.839 209.193 969.106 208.34C972.444 207.488 975.32 206.423 977.735 205.144C980.221 203.866 982.138 202.552 983.488 201.203L996.058 221.231C994.283 223.148 991.762 225.03 988.495 226.877C985.299 228.652 981.073 230.108 975.817 231.245C970.562 232.381 963.921 232.949 955.896 232.949C946.237 232.949 937.643 231.138 930.115 227.516C922.587 223.894 916.657 218.567 912.324 211.536C907.992 204.505 905.826 195.912 905.826 185.756C905.826 177.233 907.673 169.563 911.366 162.745C915.13 155.856 920.563 150.423 927.665 146.445C934.767 142.397 943.325 140.373 953.339 140.373C962.856 140.373 971.094 142.113 978.054 145.593C985.086 149.073 990.483 154.258 994.247 161.147C998.082 167.965 1000 176.487 1000 186.714C1000 187.283 999.965 188.419 999.894 190.123C999.894 191.828 999.822 192.964 999.68 193.532H936.401ZM969.532 176.594C969.461 174.321 968.857 172.084 967.721 169.882C966.585 167.61 964.88 165.763 962.607 164.343C960.335 162.851 957.423 162.106 953.872 162.106C950.321 162.106 947.302 162.816 944.817 164.236C942.402 165.586 940.555 167.361 939.277 169.563C937.998 171.764 937.288 174.108 937.146 176.594H969.532Z" fill="white" fill-opacity="0.2"/>
<path d="M867.308 207.488C871.356 207.488 874.694 206.813 877.322 205.464C879.95 204.044 881.725 202.907 882.648 202.055L897.456 224C896.32 224.924 894.367 226.131 891.597 227.623C888.827 229.043 885.347 230.286 881.157 231.351C877.038 232.416 872.315 232.949 866.988 232.949C856.974 232.949 848.168 231.067 840.568 227.303C832.969 223.468 827.039 218.07 822.778 211.11C818.587 204.15 816.492 195.983 816.492 186.608C816.492 177.162 818.587 168.995 822.778 162.106C827.039 155.216 832.969 149.89 840.568 146.126C848.168 142.291 856.974 140.373 866.988 140.373C872.244 140.373 876.931 140.941 881.05 142.078C885.241 143.143 888.756 144.386 891.597 145.806C894.438 147.156 896.426 148.327 897.563 149.322L882.435 171.48C881.938 170.983 881.015 170.273 879.666 169.35C878.387 168.426 876.718 167.61 874.659 166.899C872.599 166.189 870.149 165.834 867.308 165.834C863.828 165.834 860.561 166.722 857.507 168.497C854.524 170.273 852.109 172.723 850.263 175.848C848.416 178.973 847.493 182.56 847.493 186.608C847.493 190.656 848.416 194.278 850.263 197.474C852.109 200.599 854.524 203.049 857.507 204.825C860.561 206.6 863.828 207.488 867.308 207.488Z" fill="white" fill-opacity="0.2"/>
<path d="M763.156 140.373C769.264 140.373 775.23 141.616 781.054 144.102C786.878 146.587 791.672 150.529 795.436 155.927C799.2 161.253 801.082 168.284 801.082 177.02V230.392H768.59V182.347C768.59 176.097 767.098 171.409 764.115 168.284C761.132 165.088 757.226 163.49 752.397 163.49C749.201 163.49 746.182 164.343 743.342 166.047C740.572 167.681 738.299 170.024 736.524 173.078C734.819 176.061 733.967 179.506 733.967 183.412V230.392H701.581V142.93H733.967V155.82C734.819 153.476 736.595 151.133 739.293 148.789C742.063 146.374 745.508 144.386 749.627 142.823C753.817 141.19 758.327 140.373 763.156 140.373Z" fill="white" fill-opacity="0.2"/>
<path d="M622.631 193.532C622.844 196.657 623.839 199.427 625.614 201.842C627.39 204.257 629.84 206.174 632.965 207.595C636.161 208.944 639.925 209.619 644.257 209.619C648.377 209.619 652.07 209.193 655.337 208.34C658.675 207.488 661.551 206.423 663.966 205.144C666.451 203.866 668.369 202.552 669.718 201.203L682.289 221.231C680.514 223.148 677.992 225.03 674.725 226.877C671.529 228.652 667.304 230.108 662.048 231.245C656.793 232.381 650.152 232.949 642.127 232.949C632.468 232.949 623.874 231.138 616.346 227.516C608.818 223.894 602.887 218.567 598.555 211.536C594.223 204.505 592.057 195.912 592.057 185.756C592.057 177.233 593.903 169.563 597.596 162.745C601.361 155.856 606.794 150.423 613.896 146.445C620.998 142.397 629.556 140.373 639.57 140.373C649.087 140.373 657.325 142.113 664.285 145.593C671.316 149.073 676.714 154.258 680.478 161.147C684.313 167.965 686.231 176.487 686.231 186.714C686.231 187.283 686.195 188.419 686.124 190.123C686.124 191.828 686.053 192.964 685.911 193.532H622.631ZM655.763 176.594C655.692 174.321 655.088 172.084 653.952 169.882C652.815 167.61 651.111 165.763 648.838 164.343C646.565 162.851 643.654 162.106 640.103 162.106C636.551 162.106 633.533 162.816 631.047 164.236C628.633 165.586 626.786 167.361 625.508 169.563C624.229 171.764 623.519 174.108 623.377 176.594H655.763Z" fill="white" fill-opacity="0.2"/>
<path d="M542.153 230.392V142.93H574.539V230.392H542.153ZM558.772 124.926C553.659 124.926 549.326 123.15 545.775 119.599C542.224 115.977 540.449 111.681 540.449 106.709C540.449 101.738 542.224 97.4408 545.775 93.8187C549.397 90.1256 553.73 88.2791 558.772 88.2791C562.11 88.2791 565.164 89.1313 567.934 90.8358C570.704 92.4693 572.941 94.671 574.645 97.4408C576.35 100.211 577.202 103.3 577.202 106.709C577.202 111.681 575.391 115.977 571.769 119.599C568.147 123.15 563.815 124.926 558.772 124.926Z" fill="white" fill-opacity="0.2"/>
<path d="M486.227 230.392H453.842V142.93H486.227V156.459H485.695C486.263 154.826 487.648 152.766 489.85 150.281C492.051 147.724 495.141 145.451 499.118 143.462C503.095 141.403 507.96 140.373 513.713 140.373C517.761 140.373 521.489 141.012 524.898 142.291C528.307 143.498 530.793 144.67 532.356 145.806L519.785 172.12C518.791 170.912 517.015 169.669 514.458 168.391C511.973 167.041 508.848 166.367 505.084 166.367C500.751 166.367 497.165 167.468 494.324 169.669C491.554 171.871 489.494 174.534 488.145 177.659C486.867 180.784 486.227 183.731 486.227 186.501V230.392Z" fill="white" fill-opacity="0.2"/>
<path d="M376.277 193.532C376.49 196.657 377.484 199.427 379.26 201.842C381.035 204.257 383.485 206.174 386.61 207.595C389.806 208.944 393.57 209.619 397.903 209.619C402.022 209.619 405.715 209.193 408.982 208.34C412.32 207.488 415.196 206.423 417.611 205.144C420.097 203.866 422.014 202.552 423.364 201.203L435.934 221.231C434.159 223.148 431.638 225.03 428.371 226.877C425.175 228.652 420.949 230.108 415.693 231.245C410.438 232.381 403.797 232.949 395.772 232.949C386.113 232.949 377.519 231.138 369.991 227.516C362.463 223.894 356.533 218.567 352.2 211.536C347.868 204.505 345.702 195.912 345.702 185.756C345.702 177.233 347.549 169.563 351.242 162.745C355.006 155.856 360.439 150.423 367.541 146.445C374.643 142.397 383.201 140.373 393.215 140.373C402.732 140.373 410.97 142.113 417.931 145.593C424.962 149.073 430.359 154.258 434.123 161.147C437.958 167.965 439.876 176.487 439.876 186.714C439.876 187.283 439.841 188.419 439.77 190.123C439.77 191.828 439.699 192.964 439.556 193.532H376.277ZM409.408 176.594C409.337 174.321 408.733 172.084 407.597 169.882C406.461 167.61 404.756 165.763 402.483 164.343C400.211 162.851 397.299 162.106 393.748 162.106C390.197 162.106 387.178 162.816 384.693 164.236C382.278 165.586 380.431 167.361 379.153 169.563C377.875 171.764 377.164 174.108 377.022 176.594H409.408Z" fill="white" fill-opacity="0.2"/>
<path d="M261.668 274.71H229.602V142.93H261.988V155.714C262.982 153.725 264.864 151.559 267.634 149.215C270.475 146.8 274.061 144.741 278.394 143.036C282.797 141.261 287.769 140.373 293.308 140.373C301.831 140.373 309.11 142.468 315.147 146.658C321.255 150.849 325.942 156.459 329.209 163.49C332.476 170.451 334.11 178.192 334.11 186.714C334.11 195.237 332.37 203.014 328.89 210.045C325.41 217.005 320.509 222.58 314.188 226.77C307.939 230.89 300.552 232.949 292.03 232.949C285.922 232.949 280.702 231.884 276.37 229.753C272.108 227.552 268.735 225.137 266.249 222.509C263.834 219.81 262.307 217.715 261.668 216.224V274.71ZM302.47 186.714C302.47 182.737 301.582 179.186 299.807 176.061C298.031 172.865 295.616 170.379 292.563 168.604C289.58 166.757 286.206 165.834 282.442 165.834C278.536 165.834 275.02 166.757 271.895 168.604C268.841 170.379 266.427 172.865 264.651 176.061C262.876 179.186 261.988 182.737 261.988 186.714C261.988 190.692 262.876 194.278 264.651 197.474C266.427 200.599 268.841 203.049 271.895 204.825C275.02 206.6 278.536 207.488 282.442 207.488C286.206 207.488 289.58 206.6 292.563 204.825C295.616 203.049 298.031 200.599 299.807 197.474C301.582 194.278 302.47 190.692 302.47 186.714Z" fill="white" fill-opacity="0.2"/>
<path d="M179.864 183.412L217.043 230.392H181.142L160.475 203.44L139.808 230.392H106.357L143.43 185.969L110.086 142.93H146.306L162.499 165.408L179.438 142.93H212.25L179.864 183.412Z" fill="white" fill-opacity="0.2"/>
<path d="M0 89.7705H89.8063V117.682H31.7465V146.339H89.2736V173.398H31.7465V202.481H89.8063V230.392H0V89.7705Z" fill="white" fill-opacity="0.2"/>
<path d="M653.392 180.749C653.605 183.874 654.6 186.644 656.375 189.058C658.151 191.473 660.601 193.391 663.726 194.811C666.922 196.161 670.686 196.835 675.018 196.835C679.138 196.835 682.831 196.409 686.098 195.557C689.436 194.705 692.312 193.639 694.727 192.361C697.212 191.083 699.13 189.769 700.479 188.419L713.05 208.447C711.275 210.365 708.753 212.247 705.486 214.093C702.29 215.869 698.065 217.325 692.809 218.461C687.554 219.598 680.913 220.166 672.888 220.166C663.229 220.166 654.635 218.355 647.107 214.733C639.579 211.11 633.648 205.784 629.316 198.753C624.984 191.722 622.818 183.128 622.818 172.972C622.818 164.45 624.664 156.779 628.357 149.961C632.122 143.072 637.555 137.639 644.657 133.662C651.759 129.614 660.317 127.59 670.331 127.59C679.848 127.59 688.086 129.33 695.046 132.81C702.077 136.29 707.475 141.474 711.239 148.363C715.074 155.181 716.992 163.704 716.992 173.931C716.992 174.499 716.956 175.635 716.885 177.34C716.885 179.044 716.814 180.181 716.672 180.749H653.392ZM686.524 163.81C686.453 161.538 685.849 159.301 684.713 157.099C683.576 154.826 681.872 152.98 679.599 151.559C677.326 150.068 674.415 149.322 670.864 149.322C667.313 149.322 664.294 150.032 661.808 151.453C659.394 152.802 657.547 154.578 656.269 156.779C654.99 158.981 654.28 161.325 654.138 163.81H686.524Z" fill="#F20544"/>
<path d="M575.04 217.609H542.654V130.146H575.04V143.676H574.507C575.075 142.042 576.46 139.983 578.662 137.497C580.864 134.94 583.953 132.668 587.93 130.679C591.908 128.619 596.772 127.59 602.525 127.59C606.573 127.59 610.302 128.229 613.711 129.507C617.12 130.715 619.606 131.886 621.168 133.023L608.597 159.336C607.603 158.129 605.828 156.886 603.271 155.607C600.785 154.258 597.66 153.583 593.896 153.583C589.564 153.583 585.977 154.684 583.136 156.886C580.367 159.087 578.307 161.751 576.958 164.876C575.679 168.001 575.04 170.948 575.04 173.718V217.609Z" fill="#F20544"/>
<path d="M479.885 220.166C470.298 220.166 461.775 218.213 454.318 214.306C446.932 210.329 441.108 204.896 436.847 198.007C432.656 191.047 430.561 183.093 430.561 174.144C430.561 165.195 432.656 157.241 436.847 150.281C441.108 143.25 446.932 137.71 454.318 133.662C461.775 129.614 470.298 127.59 479.885 127.59C489.473 127.59 497.925 129.614 505.24 133.662C512.555 137.71 518.272 143.25 522.392 150.281C526.511 157.241 528.571 165.195 528.571 174.144C528.571 183.093 526.511 191.047 522.392 198.007C518.272 204.896 512.555 210.329 505.24 214.306C497.925 218.213 489.473 220.166 479.885 220.166ZM479.885 193.533C483.579 193.533 486.775 192.716 489.473 191.083C492.172 189.449 494.267 187.141 495.759 184.158C497.25 181.175 497.996 177.802 497.996 174.037C497.996 170.202 497.25 166.793 495.759 163.81C494.267 160.828 492.172 158.484 489.473 156.779C486.775 155.075 483.579 154.223 479.885 154.223C476.192 154.223 472.961 155.075 470.191 156.779C467.492 158.484 465.362 160.828 463.799 163.81C462.308 166.793 461.562 170.202 461.562 174.037C461.562 177.802 462.308 181.175 463.799 184.158C465.362 187.141 467.492 189.449 470.191 191.083C472.961 192.716 476.192 193.533 479.885 193.533Z" fill="#F20544"/>
<path d="M414.475 217.609H381.983V71.0212H414.475V217.609Z" fill="#F20544"/>
<path d="M293.262 261.926H261.196V130.146H293.581V142.93C294.576 140.942 296.458 138.775 299.227 136.432C302.068 134.017 305.655 131.957 309.987 130.253C314.39 128.477 319.362 127.59 324.902 127.59C333.424 127.59 340.704 129.685 346.741 133.875C352.848 138.065 357.536 143.676 360.803 150.707C364.07 157.667 365.703 165.408 365.703 173.931C365.703 182.453 363.963 190.23 360.483 197.261C357.003 204.221 352.103 209.797 345.782 213.987C339.532 218.106 332.146 220.166 323.623 220.166C317.515 220.166 312.295 219.1 307.963 216.97C303.702 214.768 300.328 212.353 297.842 209.726C295.428 207.027 293.901 204.932 293.262 203.44V261.926ZM334.063 173.931C334.063 169.954 333.175 166.403 331.4 163.278C329.624 160.082 327.21 157.596 324.156 155.821C321.173 153.974 317.799 153.051 314.035 153.051C310.129 153.051 306.614 153.974 303.489 155.821C300.435 157.596 298.02 160.082 296.245 163.278C294.469 166.403 293.581 169.954 293.581 173.931C293.581 177.908 294.469 181.495 296.245 184.691C298.02 187.816 300.435 190.266 303.489 192.041C306.614 193.817 310.129 194.705 314.035 194.705C317.799 194.705 321.173 193.817 324.156 192.041C327.21 190.266 329.624 187.816 331.4 184.691C333.175 181.495 334.063 177.908 334.063 173.931Z" fill="#F20544"/>
<path d="M211.457 170.628L248.637 217.609H212.736L192.068 190.656L171.401 217.609H137.95L175.023 173.185L141.679 130.146H177.9L194.093 152.624L211.031 130.146H243.843L211.457 170.628Z" fill="#F20544"/>
<path d="M31.5933 76.9868H121.4V104.898H63.3398V133.555H120.867V160.614H63.3398V189.697H121.4V217.609H31.5933V76.9868Z" fill="#F20544"/>
<path d="M875.117 315.021H879.094V305.448H887.645V315.021H892.872V322.124H887.645V328.629C887.645 329.595 887.787 330.381 888.071 330.987C888.355 331.574 888.876 331.868 889.634 331.868C890.145 331.868 890.581 331.754 890.94 331.527C891.3 331.299 891.518 331.148 891.594 331.072L894.548 337.208C894.416 337.322 893.999 337.53 893.298 337.833C892.617 338.136 891.745 338.411 890.685 338.657C889.624 338.903 888.441 339.027 887.134 339.027C884.804 339.027 882.882 338.373 881.367 337.066C879.852 335.741 879.094 333.705 879.094 330.959V322.124H875.117V315.021Z" fill="#F20544"/>
<path d="M861.973 314.34C863.602 314.34 865.193 314.671 866.746 315.334C868.299 315.997 869.577 317.048 870.581 318.487C871.585 319.908 872.087 321.783 872.087 324.112V338.345H863.422V325.533C863.422 323.866 863.025 322.616 862.229 321.783C861.434 320.93 860.392 320.504 859.104 320.504C858.252 320.504 857.447 320.732 856.689 321.186C855.951 321.622 855.345 322.247 854.871 323.061C854.417 323.856 854.189 324.775 854.189 325.817V338.345H845.553V315.021H854.189V318.459C854.417 317.834 854.89 317.209 855.61 316.584C856.349 315.94 857.267 315.41 858.366 314.993C859.483 314.557 860.686 314.34 861.973 314.34Z" fill="#F20544"/>
<path d="M824.5 328.515C824.557 329.349 824.822 330.087 825.296 330.731C825.769 331.375 826.422 331.887 827.256 332.265C828.108 332.625 829.112 332.805 830.267 332.805C831.366 332.805 832.35 332.691 833.222 332.464C834.112 332.237 834.879 331.953 835.523 331.612C836.185 331.271 836.697 330.921 837.057 330.561L840.409 335.902C839.935 336.413 839.263 336.915 838.392 337.407C837.54 337.881 836.413 338.269 835.011 338.572C833.61 338.875 831.839 339.027 829.699 339.027C827.123 339.027 824.832 338.544 822.824 337.578C820.817 336.612 819.235 335.191 818.08 333.316C816.925 331.441 816.347 329.15 816.347 326.442C816.347 324.169 816.839 322.124 817.824 320.305C818.828 318.468 820.277 317.019 822.171 315.959C824.065 314.879 826.347 314.34 829.017 314.34C831.555 314.34 833.752 314.804 835.608 315.732C837.483 316.66 838.922 318.042 839.926 319.879C840.949 321.697 841.46 323.97 841.46 326.697C841.46 326.849 841.451 327.152 841.432 327.606C841.432 328.061 841.413 328.364 841.375 328.515H824.5ZM833.335 323.998C833.316 323.392 833.155 322.796 832.852 322.209C832.549 321.603 832.095 321.11 831.489 320.732C830.883 320.334 830.106 320.135 829.159 320.135C828.212 320.135 827.407 320.324 826.744 320.703C826.101 321.063 825.608 321.536 825.267 322.124C824.926 322.711 824.737 323.336 824.699 323.998H833.335Z" fill="#F20544"/>
<path d="M806.075 332.237C807.155 332.237 808.045 332.057 808.746 331.697C809.447 331.318 809.92 331.015 810.166 330.788L814.115 336.64C813.812 336.886 813.291 337.208 812.553 337.606C811.814 337.985 810.886 338.316 809.769 338.6C808.67 338.885 807.411 339.027 805.99 339.027C803.32 339.027 800.971 338.525 798.945 337.521C796.918 336.498 795.337 335.059 794.201 333.203C793.083 331.347 792.525 329.169 792.525 326.669C792.525 324.15 793.083 321.972 794.201 320.135C795.337 318.298 796.918 316.877 798.945 315.874C800.971 314.851 803.32 314.34 805.99 314.34C807.392 314.34 808.642 314.491 809.74 314.794C810.858 315.078 811.795 315.41 812.553 315.788C813.31 316.148 813.84 316.461 814.143 316.726L810.11 322.635C809.977 322.502 809.731 322.313 809.371 322.067C809.03 321.82 808.585 321.603 808.036 321.413C807.486 321.224 806.833 321.129 806.075 321.129C805.147 321.129 804.276 321.366 803.462 321.839C802.666 322.313 802.023 322.966 801.53 323.8C801.038 324.633 800.791 325.589 800.791 326.669C800.791 327.748 801.038 328.714 801.53 329.567C802.023 330.4 802.666 331.053 803.462 331.527C804.276 332 805.147 332.237 806.075 332.237Z" fill="#F20544"/>
<path d="M779.475 314.34C781.009 314.34 782.41 314.472 783.679 314.737C784.948 314.984 786.009 315.268 786.861 315.59C787.732 315.912 788.291 316.177 788.537 316.385L785.724 321.47C785.365 321.205 784.692 320.864 783.707 320.447C782.742 320.031 781.662 319.822 780.469 319.822C779.56 319.822 778.793 319.964 778.168 320.249C777.543 320.514 777.23 320.94 777.23 321.527C777.23 322.114 777.571 322.588 778.253 322.947C778.954 323.288 779.957 323.591 781.264 323.856C782.401 324.084 783.556 324.444 784.73 324.936C785.904 325.428 786.88 326.158 787.656 327.123C788.452 328.07 788.849 329.339 788.849 330.93C788.849 332.559 788.499 333.904 787.798 334.964C787.098 336.025 786.17 336.849 785.014 337.436C783.859 338.023 782.609 338.43 781.264 338.657C779.92 338.903 778.613 339.027 777.344 339.027C775.564 339.027 774.011 338.866 772.685 338.544C771.378 338.222 770.318 337.852 769.503 337.436C768.689 337.019 768.121 336.688 767.799 336.441L770.583 330.76C771.075 331.176 771.88 331.65 772.997 332.18C774.115 332.691 775.299 332.947 776.549 332.947C777.761 332.947 778.698 332.767 779.361 332.407C780.024 332.048 780.355 331.574 780.355 330.987C780.355 330.513 780.194 330.135 779.872 329.851C779.55 329.567 779.096 329.32 778.509 329.112C777.922 328.904 777.211 328.714 776.378 328.544C775.62 328.392 774.816 328.156 773.963 327.834C773.111 327.512 772.306 327.076 771.549 326.527C770.791 325.959 770.176 325.248 769.702 324.396C769.229 323.544 768.992 322.512 768.992 321.3C768.992 319.747 769.494 318.459 770.498 317.436C771.501 316.413 772.799 315.646 774.389 315.135C775.98 314.605 777.675 314.34 779.475 314.34Z" fill="#F20544"/>
<path d="M755.046 338.345V334.566C754.875 334.945 754.44 335.494 753.739 336.214C753.057 336.934 752.148 337.587 751.012 338.174C749.876 338.742 748.55 339.027 747.035 339.027C744.762 339.027 742.773 338.477 741.069 337.379C739.364 336.261 738.039 334.775 737.092 332.919C736.145 331.044 735.671 328.97 735.671 326.697C735.671 324.425 736.145 322.36 737.092 320.504C738.039 318.629 739.364 317.133 741.069 316.016C742.773 314.898 744.762 314.34 747.035 314.34C748.493 314.34 749.771 314.576 750.87 315.05C751.968 315.504 752.858 316.054 753.54 316.698C754.222 317.322 754.696 317.9 754.961 318.43V315.021H763.54V338.345H755.046ZM744.137 326.697C744.137 327.758 744.383 328.714 744.876 329.567C745.368 330.4 746.021 331.053 746.836 331.527C747.669 332 748.588 332.237 749.591 332.237C750.633 332.237 751.552 332 752.347 331.527C753.143 331.053 753.768 330.4 754.222 329.567C754.696 328.714 754.932 327.758 754.932 326.697C754.932 325.637 754.696 324.69 754.222 323.856C753.768 323.004 753.143 322.341 752.347 321.868C751.552 321.375 750.633 321.129 749.591 321.129C748.588 321.129 747.669 321.375 746.836 321.868C746.021 322.341 745.368 323.004 744.876 323.856C744.383 324.69 744.137 325.637 744.137 326.697Z" fill="#F20544"/>
<path d="M703.731 308.63L704.356 308.743V338.345H695.862V300.846H707.453L722.651 330.391L722.026 330.504V300.846H730.52V338.345H718.873L703.731 308.63Z" fill="#F20544"/>
<path d="M659.116 339.026C656.862 339.026 654.902 338.477 653.236 337.379C651.569 336.261 650.272 334.775 649.344 332.919C648.435 331.044 647.98 328.97 647.98 326.697C647.98 324.425 648.435 322.36 649.344 320.504C650.272 318.629 651.569 317.133 653.236 316.016C654.902 314.898 656.862 314.34 659.116 314.34C660.612 314.34 661.938 314.576 663.093 315.05C664.249 315.504 665.186 316.054 665.906 316.697C666.625 317.322 667.061 317.9 667.212 318.43V299.255H675.849V338.345H667.298V334.566C666.938 335.267 666.351 335.968 665.536 336.669C664.722 337.35 663.766 337.909 662.667 338.345C661.569 338.799 660.385 339.026 659.116 339.026ZM661.758 332.237C662.8 332.237 663.728 332 664.542 331.527C665.375 331.053 666.029 330.4 666.502 329.566C666.976 328.714 667.212 327.758 667.212 326.697C667.212 325.637 666.976 324.69 666.502 323.856C666.029 323.004 665.375 322.341 664.542 321.868C663.728 321.375 662.8 321.129 661.758 321.129C660.754 321.129 659.845 321.375 659.031 321.868C658.235 322.341 657.601 323.004 657.128 323.856C656.673 324.69 656.446 325.637 656.446 326.697C656.446 327.758 656.673 328.714 657.128 329.566C657.601 330.4 658.235 331.053 659.031 331.527C659.845 332 660.754 332.237 661.758 332.237Z" fill="#F20544"/>
<path d="M633.984 314.34C635.613 314.34 637.204 314.671 638.757 315.334C640.31 315.997 641.588 317.048 642.592 318.487C643.596 319.908 644.098 321.783 644.098 324.112V338.345H635.433V325.533C635.433 323.866 635.036 322.616 634.24 321.783C633.445 320.93 632.403 320.504 631.115 320.504C630.263 320.504 629.458 320.732 628.7 321.186C627.962 321.622 627.356 322.247 626.882 323.061C626.428 323.856 626.201 324.775 626.201 325.817V338.345H617.564V315.021H626.201V318.459C626.428 317.834 626.901 317.209 627.621 316.584C628.36 315.94 629.278 315.41 630.377 314.993C631.494 314.557 632.697 314.34 633.984 314.34Z" fill="#F20544"/>
<path d="M591.668 300.846H600.106L614.907 338.345H605.844L603.117 330.817H588.685L585.93 338.345H576.839L591.668 300.846ZM591.526 323.374H600.305L595.958 311.073H595.873L591.526 323.374Z" fill="#F20544"/>
<path d="M541.872 315.021H545.85V305.448H554.401V315.021H559.628V322.124H554.401V328.629C554.401 329.595 554.543 330.381 554.827 330.987C555.111 331.574 555.632 331.868 556.389 331.868C556.9 331.868 557.336 331.754 557.696 331.527C558.056 331.299 558.274 331.148 558.349 331.072L561.304 337.208C561.171 337.322 560.755 337.53 560.054 337.833C559.372 338.136 558.501 338.411 557.44 338.657C556.38 338.903 555.196 339.027 553.889 339.027C551.56 339.027 549.637 338.373 548.122 337.066C546.607 335.741 545.85 333.705 545.85 330.959V322.124H541.872V315.021Z" fill="#F20544"/>
<path d="M528.729 314.34C530.358 314.34 531.949 314.671 533.501 315.334C535.054 315.997 536.333 317.048 537.337 318.487C538.34 319.908 538.842 321.783 538.842 324.112V338.345H530.178V325.533C530.178 323.866 529.78 322.616 528.985 321.783C528.189 320.93 527.147 320.504 525.86 320.504C525.007 320.504 524.202 320.732 523.445 321.186C522.706 321.622 522.1 322.247 521.627 323.061C521.172 323.856 520.945 324.775 520.945 325.817V338.345H512.309V315.021H520.945V318.459C521.172 317.834 521.646 317.209 522.365 316.584C523.104 315.94 524.023 315.41 525.121 314.993C526.238 314.557 527.441 314.34 528.729 314.34Z" fill="#F20544"/>
<path d="M491.256 328.515C491.312 329.349 491.578 330.087 492.051 330.731C492.525 331.375 493.178 331.887 494.011 332.265C494.863 332.625 495.867 332.805 497.023 332.805C498.121 332.805 499.106 332.691 499.977 332.464C500.867 332.237 501.634 331.953 502.278 331.612C502.941 331.271 503.452 330.921 503.812 330.561L507.164 335.902C506.691 336.413 506.019 336.915 505.147 337.407C504.295 337.881 503.168 338.269 501.767 338.572C500.365 338.875 498.594 339.027 496.454 339.027C493.879 339.027 491.587 338.544 489.579 337.578C487.572 336.612 485.991 335.191 484.835 333.316C483.68 331.441 483.102 329.15 483.102 326.442C483.102 324.169 483.595 322.124 484.58 320.305C485.583 318.468 487.032 317.019 488.926 315.959C490.82 314.879 493.102 314.34 495.773 314.34C498.31 314.34 500.507 314.804 502.363 315.732C504.238 316.66 505.678 318.042 506.681 319.879C507.704 321.697 508.215 323.97 508.215 326.697C508.215 326.849 508.206 327.152 508.187 327.606C508.187 328.061 508.168 328.364 508.13 328.515H491.256ZM500.091 323.998C500.072 323.392 499.911 322.796 499.608 322.209C499.305 321.603 498.85 321.11 498.244 320.732C497.638 320.334 496.862 320.135 495.915 320.135C494.968 320.135 494.163 320.324 493.5 320.703C492.856 321.063 492.364 321.536 492.023 322.124C491.682 322.711 491.492 323.336 491.454 323.998H500.091Z" fill="#F20544"/>
<path d="M469.795 338.345V315.021H478.431V338.345H469.795ZM474.227 310.22C472.863 310.22 471.708 309.747 470.761 308.8C469.814 307.834 469.34 306.688 469.34 305.362C469.34 304.037 469.814 302.891 470.761 301.925C471.727 300.94 472.882 300.448 474.227 300.448C475.117 300.448 475.931 300.675 476.67 301.13C477.408 301.565 478.005 302.152 478.459 302.891C478.914 303.63 479.141 304.453 479.141 305.362C479.141 306.688 478.658 307.834 477.692 308.8C476.726 309.747 475.571 310.22 474.227 310.22Z" fill="#F20544"/>
<path d="M458.072 332.237C459.151 332.237 460.041 332.057 460.742 331.697C461.443 331.318 461.916 331.015 462.163 330.788L466.111 336.64C465.808 336.886 465.288 337.208 464.549 337.606C463.81 337.985 462.882 338.316 461.765 338.6C460.666 338.885 459.407 339.027 457.987 339.027C455.316 339.027 452.968 338.525 450.941 337.521C448.915 336.498 447.333 335.059 446.197 333.203C445.08 331.347 444.521 329.169 444.521 326.669C444.521 324.15 445.08 321.972 446.197 320.135C447.333 318.298 448.915 316.877 450.941 315.874C452.968 314.851 455.316 314.34 457.987 314.34C459.388 314.34 460.638 314.491 461.737 314.794C462.854 315.078 463.791 315.41 464.549 315.788C465.307 316.148 465.837 316.461 466.14 316.726L462.106 322.635C461.973 322.502 461.727 322.313 461.367 322.067C461.026 321.82 460.581 321.603 460.032 321.413C459.483 321.224 458.829 321.129 458.072 321.129C457.144 321.129 456.273 321.366 455.458 321.839C454.663 322.313 454.019 322.966 453.526 323.8C453.034 324.633 452.788 325.589 452.788 326.669C452.788 327.748 453.034 328.714 453.526 329.567C454.019 330.4 454.663 331.053 455.458 331.527C456.273 332 457.144 332.237 458.072 332.237Z" fill="#F20544"/>
<path d="M430.298 314.34C431.927 314.34 433.518 314.671 435.071 315.334C436.624 315.997 437.902 317.048 438.906 318.487C439.909 319.908 440.411 321.783 440.411 324.112V338.345H431.747V325.533C431.747 323.866 431.349 322.616 430.554 321.783C429.758 320.93 428.717 320.504 427.429 320.504C426.576 320.504 425.772 320.732 425.014 321.186C424.275 321.622 423.669 322.247 423.196 323.061C422.741 323.856 422.514 324.775 422.514 325.817V338.345H413.878V315.021H422.514V318.459C422.741 317.834 423.215 317.209 423.934 316.584C424.673 315.94 425.592 315.41 426.69 314.993C427.807 314.557 429.01 314.34 430.298 314.34Z" fill="#F20544"/>
<path d="M387.982 300.846H396.419L411.22 338.345H402.158L399.431 330.817H384.999L382.243 338.345H373.153L387.982 300.846ZM387.84 323.374H396.618L392.272 311.073H392.186L387.84 323.374Z" fill="#F20544"/>
<path d="M936.401 264.554C936.614 267.679 937.608 270.449 939.383 272.863C941.159 275.278 943.609 277.196 946.734 278.616C949.93 279.965 953.694 280.64 958.026 280.64C962.146 280.64 965.839 280.214 969.106 279.362C972.444 278.51 975.32 277.444 977.735 276.166C980.221 274.887 982.138 273.574 983.488 272.224L996.058 292.252C994.283 294.17 991.762 296.052 988.495 297.898C985.299 299.674 981.073 301.13 975.817 302.266C970.562 303.402 963.921 303.971 955.896 303.971C946.237 303.971 937.643 302.16 930.115 298.537C922.587 294.915 916.657 289.589 912.324 282.558C907.992 275.527 905.826 266.933 905.826 256.777C905.826 248.255 907.673 240.584 911.366 233.766C915.13 226.877 920.563 221.444 927.665 217.467C934.767 213.419 943.325 211.395 953.339 211.395C962.856 211.395 971.094 213.135 978.054 216.615C985.086 220.095 990.483 225.279 994.247 232.168C998.082 238.986 1000 247.509 1000 257.736C1000 258.304 999.965 259.44 999.894 261.145C999.894 262.849 999.822 263.986 999.68 264.554H936.401ZM969.532 247.615C969.461 245.343 968.857 243.105 967.721 240.904C966.585 238.631 964.88 236.785 962.607 235.364C960.335 233.873 957.423 233.127 953.872 233.127C950.321 233.127 947.302 233.837 944.817 235.258C942.402 236.607 940.555 238.383 939.277 240.584C937.998 242.786 937.288 245.13 937.146 247.615H969.532Z" fill="white"/>
<path d="M867.308 278.51C871.356 278.51 874.694 277.835 877.322 276.485C879.95 275.065 881.725 273.929 882.648 273.076L897.456 295.022C896.32 295.945 894.367 297.153 891.597 298.644C888.827 300.064 885.347 301.307 881.157 302.373C877.038 303.438 872.315 303.971 866.988 303.971C856.974 303.971 848.168 302.089 840.568 298.324C832.969 294.489 827.039 289.092 822.778 282.132C818.587 275.172 816.492 267.004 816.492 257.629C816.492 248.183 818.587 240.016 822.778 233.127C827.039 226.238 832.969 220.911 840.568 217.147C848.168 213.312 856.974 211.395 866.988 211.395C872.244 211.395 876.931 211.963 881.05 213.099C885.241 214.164 888.756 215.407 891.597 216.828C894.438 218.177 896.426 219.349 897.563 220.343L882.435 242.502C881.938 242.005 881.015 241.294 879.666 240.371C878.387 239.448 876.718 238.631 874.659 237.921C872.599 237.211 870.149 236.856 867.308 236.856C863.828 236.856 860.561 237.743 857.507 239.519C854.524 241.294 852.109 243.745 850.263 246.87C848.416 249.995 847.493 253.581 847.493 257.629C847.493 261.678 848.416 265.3 850.263 268.496C852.109 271.62 854.524 274.071 857.507 275.846C860.561 277.622 863.828 278.51 867.308 278.51Z" fill="white"/>
<path d="M763.156 211.395C769.264 211.395 775.23 212.637 781.054 215.123C786.878 217.609 791.672 221.551 795.436 226.948C799.2 232.275 801.082 239.306 801.082 248.041V301.414H768.59V253.368C768.59 247.118 767.098 242.431 764.115 239.306C761.132 236.11 757.226 234.512 752.397 234.512C749.201 234.512 746.182 235.364 743.342 237.069C740.572 238.702 738.299 241.046 736.524 244.1C734.819 247.083 733.967 250.527 733.967 254.433V301.414H701.581V213.951H733.967V226.842C734.819 224.498 736.595 222.154 739.293 219.811C742.063 217.396 745.508 215.407 749.627 213.845C753.817 212.211 758.327 211.395 763.156 211.395Z" fill="white"/>
<path d="M622.631 264.554C622.844 267.679 623.839 270.449 625.614 272.863C627.39 275.278 629.84 277.196 632.965 278.616C636.161 279.965 639.925 280.64 644.257 280.64C648.377 280.64 652.07 280.214 655.337 279.362C658.675 278.51 661.551 277.444 663.966 276.166C666.451 274.887 668.369 273.574 669.718 272.224L682.289 292.252C680.514 294.17 677.992 296.052 674.725 297.898C671.529 299.674 667.304 301.13 662.048 302.266C656.793 303.402 650.152 303.971 642.127 303.971C632.468 303.971 623.874 302.16 616.346 298.537C608.818 294.915 602.887 289.589 598.555 282.558C594.223 275.527 592.057 266.933 592.057 256.777C592.057 248.255 593.903 240.584 597.596 233.766C601.361 226.877 606.794 221.444 613.896 217.467C620.998 213.419 629.556 211.395 639.57 211.395C649.087 211.395 657.325 213.135 664.285 216.615C671.316 220.095 676.714 225.279 680.478 232.168C684.313 238.986 686.231 247.509 686.231 257.736C686.231 258.304 686.195 259.44 686.124 261.145C686.124 262.849 686.053 263.986 685.911 264.554H622.631ZM655.763 247.615C655.692 245.343 655.088 243.105 653.952 240.904C652.815 238.631 651.111 236.785 648.838 235.364C646.565 233.873 643.654 233.127 640.103 233.127C636.551 233.127 633.533 233.837 631.047 235.258C628.633 236.607 626.786 238.383 625.508 240.584C624.229 242.786 623.519 245.13 623.377 247.615H655.763Z" fill="white"/>
<path d="M542.153 301.414V213.951H574.539V301.414H542.153ZM558.772 195.947C553.659 195.947 549.326 194.172 545.775 190.621C542.224 186.999 540.449 182.702 540.449 177.73C540.449 172.759 542.224 168.462 545.775 164.84C549.397 161.147 553.73 159.3 558.772 159.3C562.11 159.3 565.164 160.153 567.934 161.857C570.704 163.491 572.941 165.692 574.645 168.462C576.35 171.232 577.202 174.321 577.202 177.73C577.202 182.702 575.391 186.999 571.769 190.621C568.147 194.172 563.815 195.947 558.772 195.947Z" fill="white"/>
<path d="M486.227 301.414H453.842V213.951H486.227V227.481H485.695C486.263 225.847 487.648 223.788 489.85 221.302C492.051 218.745 495.141 216.473 499.118 214.484C503.095 212.424 507.96 211.395 513.713 211.395C517.761 211.395 521.489 212.034 524.898 213.312C528.307 214.519 530.793 215.691 532.356 216.828L519.785 243.141C518.791 241.934 517.015 240.691 514.458 239.412C511.973 238.063 508.848 237.388 505.084 237.388C500.751 237.388 497.165 238.489 494.324 240.691C491.554 242.892 489.494 245.556 488.145 248.681C486.867 251.806 486.227 254.753 486.227 257.523V301.414Z" fill="white"/>
<path d="M376.277 264.554C376.49 267.679 377.484 270.449 379.26 272.863C381.035 275.278 383.485 277.196 386.61 278.616C389.806 279.965 393.57 280.64 397.903 280.64C402.022 280.64 405.715 280.214 408.982 279.362C412.32 278.51 415.196 277.444 417.611 276.166C420.097 274.887 422.014 273.574 423.364 272.224L435.934 292.252C434.159 294.17 431.638 296.052 428.371 297.898C425.175 299.674 420.949 301.13 415.693 302.266C410.438 303.402 403.797 303.971 395.772 303.971C386.113 303.971 377.519 302.16 369.991 298.537C362.463 294.915 356.533 289.589 352.2 282.558C347.868 275.527 345.702 266.933 345.702 256.777C345.702 248.255 347.549 240.584 351.242 233.766C355.006 226.877 360.439 221.444 367.541 217.467C374.643 213.419 383.201 211.395 393.215 211.395C402.732 211.395 410.97 213.135 417.931 216.615C424.962 220.095 430.359 225.279 434.123 232.168C437.958 238.986 439.876 247.509 439.876 257.736C439.876 258.304 439.841 259.44 439.77 261.145C439.77 262.849 439.699 263.986 439.556 264.554H376.277ZM409.408 247.615C409.337 245.343 408.733 243.105 407.597 240.904C406.461 238.631 404.756 236.785 402.483 235.364C400.211 233.873 397.299 233.127 393.748 233.127C390.197 233.127 387.178 233.837 384.693 235.258C382.278 236.607 380.431 238.383 379.153 240.584C377.875 242.786 377.164 245.13 377.022 247.615H409.408Z" fill="white"/>
<path d="M261.668 345.731H229.602V213.951H261.988V226.735C262.982 224.747 264.864 222.58 267.634 220.237C270.475 217.822 274.061 215.762 278.394 214.058C282.797 212.282 287.769 211.395 293.308 211.395C301.831 211.395 309.11 213.49 315.147 217.68C321.255 221.87 325.942 227.481 329.209 234.512C332.476 241.472 334.11 249.213 334.11 257.736C334.11 266.258 332.37 274.035 328.89 281.066C325.41 288.026 320.509 293.602 314.188 297.792C307.939 301.911 300.552 303.971 292.03 303.971C285.922 303.971 280.702 302.905 276.37 300.775C272.108 298.573 268.735 296.158 266.249 293.531C263.834 290.832 262.307 288.737 261.668 287.245V345.731ZM302.47 257.736C302.47 253.759 301.582 250.208 299.807 247.083C298.031 243.887 295.616 241.401 292.563 239.625C289.58 237.779 286.206 236.856 282.442 236.856C278.536 236.856 275.02 237.779 271.895 239.625C268.841 241.401 266.427 243.887 264.651 247.083C262.876 250.208 261.988 253.759 261.988 257.736C261.988 261.713 262.876 265.3 264.651 268.496C266.427 271.62 268.841 274.071 271.895 275.846C275.02 277.622 278.536 278.51 282.442 278.51C286.206 278.51 289.58 277.622 292.563 275.846C295.616 274.071 298.031 271.62 299.807 268.496C301.582 265.3 302.47 261.713 302.47 257.736Z" fill="white"/>
<path d="M179.864 254.433L217.043 301.414H181.142L160.475 274.461L139.808 301.414H106.357L143.43 256.99L110.086 213.951H146.306L162.499 236.43L179.438 213.951H212.25L179.864 254.433Z" fill="white"/>
<path d="M0 160.792H89.8063V188.703H31.7465V217.36H89.2736V244.419H31.7465V273.503H89.8063V301.414H0V160.792Z" fill="white"/>
<path d="M372.611 397.292H340.119V250.705H372.611V397.292Z" fill="#FFB800"/>
<path d="M259.891 360.432C260.104 363.557 261.098 366.327 262.874 368.742C264.649 371.156 267.099 373.074 270.224 374.494C273.42 375.844 277.184 376.518 281.517 376.518C285.636 376.518 289.329 376.092 292.596 375.24C295.934 374.388 298.81 373.322 301.225 372.044C303.711 370.766 305.628 369.452 306.978 368.102L319.549 388.13C317.773 390.048 315.252 391.93 311.985 393.776C308.789 395.552 304.563 397.008 299.308 398.144C294.052 399.281 287.411 399.849 279.386 399.849C269.727 399.849 261.134 398.038 253.605 394.416C246.077 390.794 240.147 385.467 235.815 378.436C231.482 371.405 229.316 362.811 229.316 352.655C229.316 344.133 231.163 336.462 234.856 329.644C238.62 322.755 244.053 317.322 251.155 313.345C258.257 309.297 266.815 307.273 276.829 307.273C286.346 307.273 294.585 309.013 301.545 312.493C308.576 315.973 313.973 321.157 317.738 328.046C321.573 334.864 323.49 343.387 323.49 353.614C323.49 354.182 323.455 355.319 323.384 357.023C323.384 358.728 323.313 359.864 323.171 360.432H259.891ZM293.022 343.493C292.951 341.221 292.347 338.984 291.211 336.782C290.075 334.509 288.37 332.663 286.098 331.242C283.825 329.751 280.913 329.005 277.362 329.005C273.811 329.005 270.793 329.715 268.307 331.136C265.892 332.485 264.046 334.261 262.767 336.462C261.489 338.664 260.779 341.008 260.636 343.493H293.022Z" fill="#FFB800"/>
<path d="M153.775 360.432C153.988 363.557 154.983 366.327 156.758 368.742C158.534 371.156 160.984 373.074 164.109 374.494C167.305 375.844 171.069 376.518 175.401 376.518C179.52 376.518 183.213 376.092 186.48 375.24C189.818 374.388 192.695 373.322 195.109 372.044C197.595 370.766 199.513 369.452 200.862 368.102L213.433 388.13C211.657 390.048 209.136 391.93 205.869 393.776C202.673 395.552 198.447 397.008 193.192 398.144C187.936 399.281 181.296 399.849 173.27 399.849C163.612 399.849 155.018 398.038 147.49 394.416C139.962 390.794 134.031 385.467 129.699 378.436C125.367 371.405 123.201 362.811 123.201 352.655C123.201 344.133 125.047 336.462 128.74 329.644C132.504 322.755 137.937 317.322 145.04 313.345C152.142 309.297 160.7 307.273 170.714 307.273C180.231 307.273 188.469 309.013 195.429 312.493C202.46 315.973 207.858 321.157 211.622 328.046C215.457 334.864 217.375 343.387 217.375 353.614C217.375 354.182 217.339 355.319 217.268 357.023C217.268 358.728 217.197 359.864 217.055 360.432H153.775ZM186.907 343.493C186.836 341.221 186.232 338.984 185.095 336.782C183.959 334.509 182.255 332.663 179.982 331.242C177.709 329.751 174.797 329.005 171.246 329.005C167.695 329.005 164.677 329.715 162.191 331.136C159.776 332.485 157.93 334.261 156.652 336.462C155.373 338.664 154.663 341.008 154.521 343.493H186.907Z" fill="#FFB800"/>
<path d="M31.7795 256.67H113.063V284.581H63.6325V312.919H109.335V340.724H63.6325V397.292H31.7795V256.67Z" fill="#FFB800"/>
<path d="M372.611 466.893H340.119V320.305H372.611V466.893Z" fill="#FFB800" fill-opacity="0.2"/>
<path d="M259.891 430.033C260.104 433.158 261.098 435.928 262.874 438.343C264.649 440.757 267.099 442.675 270.224 444.095C273.42 445.445 277.184 446.119 281.517 446.119C285.636 446.119 289.329 445.693 292.596 444.841C295.934 443.989 298.81 442.923 301.225 441.645C303.711 440.367 305.628 439.053 306.978 437.703L319.549 457.731C317.773 459.649 315.252 461.531 311.985 463.378C308.789 465.153 304.563 466.609 299.308 467.745C294.052 468.882 287.411 469.45 279.386 469.45C269.727 469.45 261.134 467.639 253.605 464.017C246.077 460.395 240.147 455.068 235.815 448.037C231.482 441.006 229.316 432.412 229.316 422.256C229.316 413.734 231.163 406.063 234.856 399.245C238.62 392.356 244.053 386.923 251.155 382.946C258.257 378.898 266.815 376.874 276.829 376.874C286.346 376.874 294.585 378.614 301.545 382.094C308.576 385.574 313.973 390.758 317.738 397.647C321.573 404.465 323.49 412.988 323.49 423.215C323.49 423.783 323.455 424.92 323.384 426.624C323.384 428.329 323.313 429.465 323.171 430.033H259.891ZM293.022 413.095C292.951 410.822 292.347 408.585 291.211 406.383C290.075 404.11 288.37 402.264 286.098 400.843C283.825 399.352 280.913 398.606 277.362 398.606C273.811 398.606 270.793 399.316 268.307 400.737C265.892 402.086 264.046 403.862 262.767 406.063C261.489 408.265 260.779 410.609 260.636 413.095H293.022Z" fill="#FFB800" fill-opacity="0.2"/>
<path d="M153.775 430.033C153.988 433.158 154.983 435.928 156.758 438.343C158.534 440.757 160.984 442.675 164.109 444.095C167.305 445.445 171.069 446.119 175.401 446.119C179.52 446.119 183.213 445.693 186.48 444.841C189.818 443.989 192.695 442.923 195.109 441.645C197.595 440.367 199.513 439.053 200.862 437.703L213.433 457.731C211.657 459.649 209.136 461.531 205.869 463.378C202.673 465.153 198.447 466.609 193.192 467.745C187.936 468.882 181.296 469.45 173.27 469.45C163.612 469.45 155.018 467.639 147.49 464.017C139.962 460.395 134.031 455.068 129.699 448.037C125.367 441.006 123.201 432.412 123.201 422.256C123.201 413.734 125.047 406.063 128.74 399.245C132.504 392.356 137.937 386.923 145.04 382.946C152.142 378.898 160.7 376.874 170.714 376.874C180.231 376.874 188.469 378.614 195.429 382.094C202.46 385.574 207.858 390.758 211.622 397.647C215.457 404.465 217.375 412.988 217.375 423.215C217.375 423.783 217.339 424.92 217.268 426.624C217.268 428.329 217.197 429.465 217.055 430.033H153.775ZM186.907 413.095C186.836 410.822 186.232 408.585 185.095 406.383C183.959 404.11 182.255 402.264 179.982 400.843C177.709 399.352 174.797 398.606 171.246 398.606C167.695 398.606 164.677 399.316 162.191 400.737C159.776 402.086 157.93 403.862 156.652 406.063C155.373 408.265 154.663 410.609 154.521 413.095H186.907Z" fill="#FFB800" fill-opacity="0.2"/>
<path d="M31.7795 326.271H113.063V354.183H63.6325V382.52H109.335V410.325H63.6325V466.893H31.7795V326.271Z" fill="#FFB800" fill-opacity="0.2"/>
</svg>
