<svg width="62" height="49" viewBox="0 0 62 49" fill="none" xmlns="http://www.w3.org/2000/svg">
<path d="M6.65 48.7C6.15 48.7 5.65 48.6167 5.15 48.45C4.65 48.25 4.13333 48.15 3.6 48.15C1.73333 48.15 0.8 47.25 0.8 45.45C0.8 44.7167 0.95 43.8667 1.25 42.9C1.58333 41.9667 1.98333 41.05 2.45 40.15C2.91667 39.25 3.38333 38.5167 3.85 37.95H3.7L2.3 40.1H2.25C2.21667 40.1 2.2 40.0833 2.2 40.05C2.2 39.8167 2.4 39.4167 2.8 38.85C3.2 38.25 3.68333 37.6 4.25 36.9C4.85 36.1667 5.45 35.4667 6.05 34.8C6.68333 34.1 7.21667 33.5167 7.65 33.05C8.08333 32.5833 8.33333 32.3333 8.4 32.3C8.76667 32.0667 9.13333 31.8333 9.5 31.6C9.86667 31.3667 10.2333 31.1333 10.6 30.9C10.9667 30.6667 11.3167 30.45 11.65 30.25C12.0167 30.0167 12.3833 29.7833 12.75 29.55C12.85 29.4833 12.95 29.3833 13.05 29.25C13.1833 29.1167 13.2833 29.0333 13.35 29C13.6833 28.7667 14.0167 28.5667 14.35 28.4C14.6833 28.2 15.0333 28.0333 15.4 27.9C15.5667 27.3333 15.8667 26.8 16.3 26.3C16.7333 25.8 17.1833 25.4 17.65 25.1C17.7167 25.1 17.9167 25.0667 18.25 25C18.6167 24.9333 18.9667 24.8667 19.3 24.8C19.6333 24.7 19.8333 24.6167 19.9 24.55C21.1667 24.2833 22.4333 24.0667 23.7 23.9C25 23.7333 26.3 23.65 27.6 23.65C27.9333 23.65 28.25 23.65 28.55 23.65C28.8833 23.6167 29.2167 23.5833 29.55 23.55C29.8833 23.5167 30.2 23.4833 30.5 23.45C30.8333 23.4167 31.1667 23.3833 31.5 23.35C31.6333 23.3167 31.7667 23.3 31.9 23.3C32.0667 23.3 32.2333 23.3 32.4 23.3C32.5667 23.3333 32.7167 23.35 32.85 23.35C32.9833 23.3167 33.1167 23.2833 33.25 23.25L33.85 23.1L34.4 22.95C34.6667 22.6833 34.9167 22.4 35.15 22.1C35.4167 21.8 35.6667 21.5 35.9 21.2C36.1667 20.9333 36.4167 20.65 36.65 20.35C36.9167 20.05 37.1833 19.7667 37.45 19.5C37.9167 19 38.4 18.5 38.9 18C39.4 17.5 39.9 17 40.4 16.5C41.3667 15.4667 42.3 14.4333 43.2 13.4C43.6333 12.8667 44.05 12.3333 44.45 11.8C44.8833 11.2667 45.2833 10.7333 45.65 10.2L47.9 7C48.1667 6.63333 48.4167 6.26667 48.65 5.9C48.9167 5.5 49.1667 5.1 49.4 4.7C49.6333 4.33333 49.8667 3.96667 50.1 3.6C50.3667 3.23333 50.6667 2.88333 51 2.55L50.95 2.5C50.95 2.4 51.1 2.23333 51.4 2L51.95 1.55C51.6167 1.58333 51.2833 1.6 50.95 1.6C50.65 1.6 50.35 1.61667 50.05 1.65C49.7167 1.68333 49.3833 1.71666 49.05 1.75C48.75 1.75 48.4333 1.75 48.1 1.75C47.2667 1.75 46.45 1.93333 45.65 2.3C44.85 2.66667 44.0333 2.85 43.2 2.85H42.55C42.45 2.85 42.35 2.85 42.25 2.85C42.15 2.81667 42.0333 2.78333 41.9 2.75V2.8L42.2 2.95C42.1333 3.05 42.05 3.13333 41.95 3.2V3H41.85C41.8167 3 41.8 2.98333 41.8 2.95C41.5 2.95 41.2333 3.01666 41 3.15C40.8667 3.21667 40.7167 3.28333 40.55 3.35C40.4167 3.41667 40.2833 3.46667 40.15 3.5L40.1 3.7C39.9333 3.7 39.6167 3.73333 39.15 3.8C38.7167 3.83333 38.45 3.9 38.35 4H38.5L36.7 4.2L36.85 4.05H36.5L36.45 4.2H36.6C36.6333 4.2 36.5833 4.21667 36.45 4.25C36.3167 4.25 36.25 4.28333 36.25 4.35C36.25 4.41666 36.3 4.43333 36.4 4.4C36.4667 4.36666 36.5333 4.35 36.6 4.35L36.75 4.55L36.7 4.65H36.05C35.85 4.68333 35.6333 4.68333 35.4 4.65L35.1 4.95L34.3 5.1L34.15 5C34.05 5.1 33.9833 5.18333 33.95 5.25C33.9167 5.35 33.8333 5.43333 33.7 5.5C33.6333 5.53333 33.3 5.66667 32.7 5.9C32.1 6.1 31.4167 6.33333 30.65 6.6C29.9167 6.86667 29.25 7.11666 28.65 7.35C28.0833 7.58333 27.7833 7.73333 27.75 7.8V7.85L27.8 7.8C27.8667 7.76666 28.0667 7.68333 28.4 7.55C28.7333 7.41666 28.9333 7.35 29 7.35V7.4L28.95 7.45C28.8833 7.48333 28.8167 7.51666 28.75 7.55C28.7167 7.58333 28.6667 7.61667 28.6 7.65C28.4667 7.78333 28.35 7.86667 28.25 7.9H28.55C27.95 8.2 27.2 8.61667 26.3 9.15C25.4 9.68333 24.5167 10.2333 23.65 10.8C22.7833 11.3667 22.0833 11.85 21.55 12.25L21.65 12.35L21 12.95L20.65 13.1C20.3833 13.6333 20.1 14.1 19.8 14.5C19.5 14.8667 19.35 15.35 19.35 15.95C19.35 16.1833 19.4667 16.45 19.7 16.75C19.9333 17.05 20.15 17.3167 20.35 17.55C20.5833 17.7833 20.6833 17.95 20.65 18.05H20.6C20.6 18.0833 20.5833 18.1 20.55 18.1H20.5C20.1 18.1 19.6167 17.9167 19.05 17.55C18.5167 17.1833 18.05 16.7333 17.65 16.2C17.25 15.6667 17.05 15.1833 17.05 14.75V14.7H17.45C17.5167 14.7 17.5833 14.7 17.65 14.7C17.75 14.7 17.8167 14.6833 17.85 14.65L17.9 14.6C17.9 14.6 17.8167 14.4333 17.65 14.1C17.4833 13.8333 17.4 13.65 17.4 13.55V13.5C17.4667 13.5 17.55 13.4 17.65 13.2C17.7833 13 17.8667 12.8667 17.9 12.8L17.8 12.9C17.7333 12.9667 17.6833 12.9833 17.65 12.95L18.35 11.85L18.45 11.9C18.85 11.4 19.3167 11 19.85 10.7C20.4167 10.4 20.9167 10.1 21.35 9.8C21.7833 9.46667 22.05 9.01667 22.15 8.45L22.1 8.35H22.4C22.5333 8.28333 22.6667 8.21666 22.8 8.15C22.9333 8.05 23.0667 7.93333 23.2 7.8C23.4667 7.53333 23.7167 7.38333 23.95 7.35V7.45L26.4 5.85C26.4 5.91666 26.4333 5.95 26.5 5.95C26.5 5.95 26.6 5.91666 26.8 5.85L26.75 5.95C26.6167 5.95 26.5167 6 26.45 6.1L27.6 5.8L27.45 5.9C27.75 5.8 28.05 5.66666 28.35 5.5L28.15 5.45L28.45 5.25L27.65 5.4L27.75 5.3C28.0167 5.16667 28.4333 4.98333 29 4.75C29.6 4.48333 30.1833 4.26666 30.75 4.1C31.35 3.9 31.7833 3.83333 32.05 3.9V3.85C32.65 3.58333 33.1667 3.45 33.6 3.45L33.65 3.35C33.6167 3.31667 33.4667 3.3 33.2 3.3C33.0667 3.33333 32.9667 3.35 32.9 3.35C32.8333 3.35 32.7667 3.35 32.7 3.35L34.05 2.95V3L37.15 1.95L37.25 2C37.65 2 38.05 1.9 38.45 1.7C38.8167 1.5 39.2167 1.4 39.65 1.4L39.7 1.45L42 1.1V1.05C42.2667 1.01666 42.5333 0.983332 42.8 0.949999C43.0667 0.916664 43.3167 0.866664 43.55 0.799998C43.8167 0.733332 44.0667 0.666665 44.3 0.599998C44.5667 0.533332 44.8167 0.483332 45.05 0.45V0.499999H45.25C45.3833 0.499999 45.5 0.499999 45.6 0.499999C45.7333 0.466666 45.8667 0.433332 46 0.399997C46.1333 0.366664 46.25 0.349998 46.35 0.349998C46.4833 0.316665 46.6167 0.299999 46.75 0.299999C46.8167 0.299999 46.9 0.299999 47 0.299999C47.1 0.299999 47.1833 0.316665 47.25 0.349998C47.35 0.383331 47.5 0.399997 47.7 0.399997C48.0667 0.399997 48.45 0.399997 48.85 0.399997C49.25 0.366664 49.6333 0.333331 50 0.299999C50.3667 0.266666 50.7333 0.249999 51.1 0.249999C51.5 0.216664 51.8833 0.199997 52.25 0.199997C52.65 0.199997 53.0167 0.249997 53.35 0.349998L53.3 0.299999C53.7333 0.299999 54.2 0.366665 54.7 0.499999C55.2 0.633333 55.45 0.949999 55.45 1.45C55.45 1.75 55.3833 2.01666 55.25 2.25C55.0833 2.61667 54.8833 2.95 54.65 3.25C54.45 3.55 54.2167 3.85 53.95 4.15L49.5 9.15C48.7667 9.98333 48.0167 10.8167 47.25 11.65C46.5167 12.45 45.7667 13.2833 45 14.15C43.7333 15.5833 42.4667 17 41.2 18.4C39.9333 19.8 38.6167 21.1833 37.25 22.55H37.45C37.6167 22.55 37.7667 22.55 37.9 22.55C38.0667 22.5167 38.2167 22.4833 38.35 22.45C38.4833 22.4167 38.6167 22.4 38.75 22.4C38.9167 22.4 39.0667 22.3833 39.2 22.35C40.4333 22.2167 41.65 22.1167 42.85 22.05C44.0833 21.95 45.3167 21.8667 46.55 21.8L46.6 21.65L46.7 21.55L46.65 21.75H46.75L46.65 20.95L47.25 20.85V20.75L47.1 20.5C47.1 20.4 47.1333 20.3833 47.2 20.45L50 14.85V14.7H49.8C49.7333 14.7333 49.65 14.75 49.55 14.75V14.55H49.65C49.6833 14.4833 49.8167 14.25 50.05 13.85C50.2833 13.45 50.5333 13.0167 50.8 12.55C51.1 12.05 51.3667 11.6167 51.6 11.25C51.8667 10.85 52.0333 10.6333 52.1 10.6C52.0667 10.4333 52.1833 10.1 52.45 9.6C52.75 9.1 53.0667 8.58333 53.4 8.05C53.7667 7.51666 54 7.16667 54.1 7L54.25 6.9L54.2 6.5L54.85 5.9V5.8L54.2 5.9V5.8H54.3L55.65 3.95C55.95 3.55 56.15 3.13333 56.25 2.7C56.35 2.26666 56.4833 1.9 56.65 1.6C56.8167 1.26666 57.1333 1.05 57.6 0.949999L57.7 0.799998H57.8V0.699999C58.2 0.699999 58.6833 0.783333 59.25 0.949999C59.85 1.08333 60.3667 1.3 60.8 1.6C61.2667 1.86666 61.5 2.21666 61.5 2.65C61.5 3.08333 61.2833 3.58333 60.85 4.15C60.4167 4.71666 59.8833 5.31666 59.25 5.95C58.65 6.58333 58.05 7.21666 57.45 7.85C56.8833 8.45 56.4333 9.01667 56.1 9.55L55.4 10.7H55.3L55.4 10.4H55.2L54.85 10.9L54.9 11L55.05 10.9L55.1 11C54.9333 11.1 54.6833 11.3167 54.35 11.65C54.05 11.9833 53.9 12.2333 53.9 12.4V12.45L53.95 12.5V12.4L54.2 12.2C54.1333 12.6667 54 13.1167 53.8 13.55C53.6 13.95 53.3667 14.3333 53.1 14.7L53.4 15C53.4 15 53.3667 15.1 53.3 15.3C53.2333 15.4667 53.1833 15.55 53.15 15.55C53.1167 15.55 53.0833 15.5167 53.05 15.45C53.0167 15.3833 53 15.3333 53 15.3L53.1 13.6H53.2L52.95 13.1C53.1833 12.8 53.3167 12.6 53.35 12.5H53.15C52.8833 12.9667 52.7 13.5333 52.6 14.2C52.5333 14.8667 52.4833 15.4833 52.45 16.05L52.15 15.95V16.05L52.35 16.35L51.9 16.55L51.8 16.65L51.95 16.75L52 16.65V16.75C51.9667 16.7833 51.95 16.8333 51.95 16.9C51.8833 17.1333 51.8167 17.5167 51.75 18.05C51.7167 18.5833 51.55 18.85 51.25 18.85L51.3 19.45C51.3 19.5167 51.2167 19.7333 51.05 20.1C50.9167 20.4333 50.85 20.6833 50.85 20.85L50.75 20.9L50.6 20.8V21.2L50.35 21.65H51.6C52.1 21.65 52.8 21.6667 53.7 21.7C54.6333 21.7 55.5167 21.75 56.35 21.85C57.2167 21.95 57.7833 22.1333 58.05 22.4V22.45C58.05 22.5833 57.9 22.6833 57.6 22.75C57.3 22.7833 57.1167 22.8 57.05 22.8C57.1167 22.6333 57.0667 22.55 56.9 22.55C56.8 22.5833 56.7 22.6 56.6 22.6C56.5333 22.6 56.4333 22.6 56.3 22.6C56.2 22.5667 56.0833 22.5333 55.95 22.5C55.8167 22.5333 55.7 22.5667 55.6 22.6C55.5 22.6 55.4 22.5833 55.3 22.55C55.1667 22.5167 54.95 22.5833 54.65 22.75C54.45 22.75 54.25 22.75 54.05 22.75C53.85 22.75 53.6667 22.7333 53.5 22.7H52.3C52.1 22.7 51.9 22.7167 51.7 22.75C51.5 22.75 51.3 22.7667 51.1 22.8C50.7 22.9 50.3 22.95 49.9 22.95V22.9C49.9 22.8333 49.8833 22.8167 49.85 22.85L49.9 22.65H50.15L50.2 22.5H49.9C49.1333 23.7333 48.4833 25 47.95 26.3L47.8 26.85C47.7667 26.95 47.7333 27.05 47.7 27.15C47.6667 27.25 47.6333 27.35 47.6 27.45L46.1 33.05C46.0333 33.35 45.95 33.8167 45.85 34.45C45.75 35.0833 45.7 35.5667 45.7 35.9C45.7 36.2333 45.7667 36.5167 45.9 36.75C46 36.9833 46.05 37.2667 46.05 37.6V38C46.05 38.5333 46.25 39.0333 46.65 39.5C47.0833 39.9333 47.5667 40.15 48.1 40.15C48.6 40.15 49.05 40.0167 49.45 39.75C49.8833 39.4833 50.3 39.2167 50.7 38.95C50.7 38.95 50.7333 39.0167 50.8 39.15C50.9 39.1833 50.95 39.2667 50.95 39.4C50.95 39.6 50.7167 39.8167 50.25 40.05C49.8167 40.2833 49.3 40.5 48.7 40.7C48.1 40.9333 47.55 41.1167 47.05 41.25C46.55 41.3833 46.25 41.45 46.15 41.45C45.45 41.45 44.8167 41.2833 44.25 40.95C43.6833 40.6167 43.2667 40.1167 43 39.45C43.1 39.35 43.15 39.2333 43.15 39.1L43 38.85C42.8667 38.5833 42.7333 38.3167 42.6 38.05C42.4667 37.7833 42.3333 37.5167 42.2 37.25C42.0667 36.9833 41.9333 36.7167 41.8 36.45C41.6667 36.1833 41.5167 35.9333 41.35 35.7C40.85 34.9 40.25 34.0167 39.55 33.05C38.8833 32.0833 38.1667 31.1667 37.4 30.3C36.6333 29.4 35.8667 28.7 35.1 28.2C34.9333 28.1 34.7667 28 34.6 27.9C34.4667 27.8 34.3167 27.7 34.15 27.6C33.9833 27.5333 33.8167 27.45 33.65 27.35C33.4833 27.25 33.3167 27.15 33.15 27.05C32.6833 27.45 32.2333 27.8667 31.8 28.3C31.4 28.7 30.9833 29.1167 30.55 29.55L29.45 30.6C29.2833 30.7667 29.1 30.95 28.9 31.15C28.7333 31.35 28.5667 31.55 28.4 31.75C28.2333 31.95 28 32.2167 27.7 32.55C27.4333 32.85 27.0833 33.2333 26.65 33.7C25.8167 34.6 24.85 35.6 23.75 36.7C22.6833 37.8 21.55 38.9333 20.35 40.1C19.7167 40.6667 19.1167 41.2167 18.55 41.75C17.9833 42.3167 17.4167 42.8333 16.85 43.3C16.2833 43.8 15.6667 44.3167 15 44.85C14.3667 45.3833 13.7833 45.8167 13.25 46.15C12.7167 46.5167 12.3 46.7167 12 46.75C11.8333 47.0167 11.3833 47.3 10.65 47.6C9.91667 47.9 9.15 48.15 8.35 48.35C7.58333 48.5833 7.01667 48.7 6.65 48.7ZM42.8 35.3C42.8333 35 42.85 34.7167 42.85 34.45C42.8833 34.15 42.9 33.85 42.9 33.55L43 33.5C43.1667 32.8 43.3333 32.1 43.5 31.4C43.7 30.7 43.8667 30 44 29.3L44.15 28.55C44.15 28.4167 44.15 28.3 44.15 28.2C44.1833 28.0667 44.2167 27.9333 44.25 27.8C44.2833 27.6667 44.35 27.5 44.45 27.3C44.55 27.1 44.6667 26.9667 44.8 26.9L44.65 26.55C44.7167 26.5167 44.7833 26.4167 44.85 26.25C44.85 26.15 44.9333 26.0667 45.1 26V25.9C45.0667 25.9 45.05 25.8833 45.05 25.85C45.05 25.6167 45.1667 25.2167 45.4 24.65C45.6333 24.05 45.8167 23.5833 45.95 23.25C45.7167 23.2833 45.4667 23.3 45.2 23.3C44.9667 23.3 44.7167 23.3 44.45 23.3C43.95 23.3 43.4667 23.35 43 23.45L42.95 23.15C42.5833 23.35 41.9333 23.5167 41 23.65C40.1 23.75 39.1667 23.85 38.2 23.95C37.2333 24.05 36.5 24.1833 36 24.35C35.8333 24.5167 35.65 24.6833 35.45 24.85C35.2833 25.0167 35.1167 25.1833 34.95 25.35C34.7833 25.4833 34.6 25.65 34.4 25.85C34.2333 26.0167 34.0667 26.1833 33.9 26.35C35.3667 27.15 36.5833 27.9833 37.55 28.85C38.55 29.6833 39.45 30.6333 40.25 31.7C41.05 32.7333 41.9 33.9333 42.8 35.3ZM20.7 26.35H20.85L21.45 26.3C22.15 25.9333 22.9833 25.7333 23.95 25.7C24.95 25.6333 25.8667 25.4667 26.7 25.2C26.8 25.1667 27.0333 25.1333 27.4 25.1C27.8 25.0667 28.2167 25.0333 28.65 25C29.0833 24.9333 29.4 24.9 29.6 24.9C29.7 24.8667 29.8 24.85 29.9 24.85C30 24.85 30.1 24.8333 30.2 24.8C30.3 24.8 30.4 24.8 30.5 24.8C30.6 24.7667 30.7 24.7333 30.8 24.7C31.1 24.6333 31.2333 24.5833 31.2 24.55H28.35C27.8833 24.55 27.4 24.55 26.9 24.55C26.4333 24.55 25.9667 24.5667 25.5 24.6C25 24.6 24.5333 24.6833 24.1 24.85C23.7 24.9167 23.2333 24.9833 22.7 25.05C22.2 25.1167 21.75 25.25 21.35 25.45C20.9833 25.6167 20.7667 25.9167 20.7 26.35ZM6.55 46.6C7.75 46.6 9.06667 46.2333 10.5 45.5C11.9667 44.7333 13.4833 43.75 15.05 42.55C16.65 41.35 18.2667 40 19.9 38.5C20.7 37.7333 21.4833 36.9833 22.25 36.25C23.05 35.5167 23.8167 34.7833 24.55 34.05C25.35 33.25 26.2 32.3667 27.1 31.4C28.0333 30.4333 28.9 29.5167 29.7 28.65C30.5 27.7833 31.15 27.1 31.65 26.6L31.6 26.55C31.1333 26.4833 30.65 26.4333 30.15 26.4C29.6833 26.3333 29.2 26.3 28.7 26.3C28.1667 26.3 27.4 26.3667 26.4 26.5C25.4333 26.6333 24.4 26.8 23.3 27C22.2333 27.2 21.2167 27.4167 20.25 27.65C19.2833 27.85 18.55 28.0333 18.05 28.2C17.6167 28.3667 17.1667 28.5667 16.7 28.8C16.2667 29.0333 15.8667 29.2833 15.5 29.55C14.1 30.3833 12.6167 31.4667 11.05 32.8C9.48333 34.1333 8.03333 35.5833 6.7 37.15C5.4 38.6833 4.45 40.2 3.85 41.7C3.48333 42.5 3.3 43.2667 3.3 44C3.3 44.9667 3.61667 45.6333 4.25 46C4.91667 46.4 5.68333 46.6 6.55 46.6Z" fill="white"/>
</svg>
